<?xml version="1.0" encoding="UTF-8"?><svg version="1.1" xmlns="http://www.w3.org/2000/svg" xmlns:xlink="http://www.w3.org/1999/xlink" viewBox="0 0 1600 1200" width="1600" height="1200" x="0px" y="0px">
              
              <!-- ITEM 0 -->
<g>
    <defs>
        
        <clipPath id="clip-path-id-viewbox-item-0">
            <rect x="0.0" y="0.0" width="800.0" height="600.0"/>
        </clipPath>
    </defs>
    <g transform="translate(127.0 18.0) rotate(0.0 659.0 494.5) scale(1.6475 1.6483333333333334)">
        <g clip-path="url(#clip-path-id-viewbox-item-0)" transform="translate(-0.0 -0.0)">

<linearGradient id="SVGID_1_-i0" gradientUnits="userSpaceOnUse" x1="861.8562" y1="-2476.7854" x2="3464.1475" y2="-2476.7854" gradientTransform="matrix(0.1 0 0 -0.1 0 18)">
	<stop offset="0" style="stop-color:#E8F1FE"/>
	<stop offset="1" style="stop-color:#C1D7F8"/>
</linearGradient>
<ellipse style="fill:url(#SVGID_1_-i0);" cx="216.3" cy="265.679" rx="130.115" ry="132.422"/>
<g style="opacity:0.69;">
	<g>
		<polygon style="fill:#b4d1e7;" points="687.917,146.204 671.509,129.924 687.917,113.515 690.609,116.207 677.021,129.924     690.609,143.512   "/>
	</g>
	<g>
		<polygon style="fill:#b4d1e7;" points="675.739,146.204 659.459,129.924 675.739,113.515 678.559,116.207 664.843,129.924     678.559,143.512   "/>
	</g>
</g>
<g style="opacity:0.69;">
	<g>
		<polygon style="fill:#1D72D8;" points="15.552,285.805 12.86,282.984 26.448,269.396 12.86,255.68 15.552,252.988 31.832,269.396       "/>
	</g>
	<g>
		<polygon style="fill:#1D72D8;" points="27.73,285.805 24.91,282.984 38.627,269.396 24.91,255.68 27.73,252.988 44.011,269.396       "/>
	</g>
</g>
<g>
	<path style="opacity:0.45;fill:#a5c6ec;enable-background:new    ;" d="M713.684,499.628l12.435,6.41   c1.282,0.385,2.564,0.641,3.846,0.897l-19.357-9.999C711.633,497.962,712.658,498.859,713.684,499.628z"/>
	<path style="opacity:0.45;fill:#a5c6ec;enable-background:new    ;" d="M707.018,493.091l28.202,14.486c0.641,0,1.41,0,2.051,0   l-31.407-16.152C706.249,491.937,706.633,492.45,707.018,493.091z"/>
	<path style="opacity:0.45;fill:#a5c6ec;enable-background:new    ;" d="M704.326,488.476l36.663,18.844   c0.513-0.128,1.026-0.128,1.666-0.256l-38.842-19.998C703.941,487.578,704.07,487.963,704.326,488.476z"/>
	<path style="opacity:0.45;fill:#a5c6ec;enable-background:new    ;" d="M703.429,484.758l42.175,21.664   c0.513-0.128,0.897-0.256,1.41-0.385l-43.585-22.434C703.3,483.989,703.3,484.374,703.429,484.758z"/>
	<path style="opacity:0.45;fill:#a5c6ec;enable-background:new    ;" d="M703.557,481.682l46.021,23.587   c0.385-0.128,0.769-0.256,1.154-0.513l-46.918-24.1C703.557,480.912,703.557,481.297,703.557,481.682z"/>
	<path style="opacity:0.45;fill:#a5c6ec;enable-background:new    ;" d="M704.198,478.733l48.713,25.126   c0.385-0.128,0.641-0.385,1.026-0.513l-49.482-25.51C704.326,478.092,704.198,478.477,704.198,478.733z"/>
	<path style="opacity:0.45;fill:#a5c6ec;enable-background:new    ;" d="M705.095,476.041l50.764,26.151   c0.256-0.128,0.641-0.385,0.897-0.641l-51.405-26.407C705.352,475.528,705.223,475.785,705.095,476.041z"/>
	<path style="opacity:0.45;fill:#a5c6ec;enable-background:new    ;" d="M706.249,473.477l52.302,26.92   c0.256-0.256,0.641-0.385,0.897-0.641l-52.687-27.177C706.633,472.836,706.505,473.221,706.249,473.477z"/>
	<path style="opacity:0.45;fill:#a5c6ec;enable-background:new    ;" d="M708.3,470.913c-0.128,0.128-0.128,0.128-0.256,0.256   l53.071,27.305c0.256-0.256,0.513-0.385,0.769-0.641l-52.943-27.177C708.685,470.657,708.428,470.785,708.3,470.913z"/>
	<path style="opacity:0.45;fill:#a5c6ec;enable-background:new    ;" d="M713.043,470.144c-0.256,0-0.385,0-0.641,0l50.892,26.151   c0.256-0.256,0.385-0.513,0.641-0.769l-49.61-25.51C713.812,470.144,713.428,470.144,713.043,470.144z"/>
	<path style="opacity:0.45;fill:#a5c6ec;enable-background:new    ;" d="M717.402,469.632l47.687,24.485   c0.256-0.256,0.385-0.513,0.513-0.769l-47.046-24.1C718.299,469.375,717.914,469.503,717.402,469.632z"/>
	<path style="opacity:0.45;fill:#a5c6ec;enable-background:new    ;" d="M720.991,468.221l45.764,23.587   c0.128-0.256,0.385-0.513,0.513-0.769l-45.252-23.203C721.76,467.837,721.375,468.093,720.991,468.221z"/>
	<path style="opacity:0.45;fill:#a5c6ec;enable-background:new    ;" d="M723.939,466.555l44.354,22.818   c0.128-0.256,0.256-0.513,0.385-0.897l-43.842-22.562C724.452,466.042,724.196,466.299,723.939,466.555z"/>
	<path style="opacity:0.45;fill:#a5c6ec;enable-background:new    ;" d="M726.247,464.504l43.072,22.177   c0.128-0.256,0.256-0.641,0.385-0.897l-42.816-22.049C726.76,464.119,726.503,464.247,726.247,464.504z"/>
	<path style="opacity:0.45;fill:#a5c6ec;enable-background:new    ;" d="M728.17,462.325l42.047,21.664   c0.128-0.256,0.128-0.641,0.256-0.897l-41.79-21.536C728.554,461.812,728.426,462.068,728.17,462.325z"/>
	<path style="opacity:0.45;fill:#a5c6ec;enable-background:new    ;" d="M729.708,459.889l41.15,21.152   c0-0.385,0.128-0.641,0.128-1.026l-40.765-21.023C730.092,459.376,729.964,459.633,729.708,459.889z"/>
	<path style="opacity:0.45;fill:#a5c6ec;enable-background:new    ;" d="M771.114,476.938l-39.868-20.511   c-0.128,0.256-0.256,0.641-0.256,0.897l40.124,20.639C771.114,477.579,771.114,477.323,771.114,476.938z"/>
	<path style="opacity:0.45;fill:#a5c6ec;enable-background:new    ;" d="M770.729,473.477l-38.842-19.998   c0,0.385-0.128,0.641-0.128,1.026l39.227,20.126C770.857,474.246,770.857,473.862,770.729,473.477z"/>
	<path style="opacity:0.45;fill:#a5c6ec;enable-background:new    ;" d="M769.704,469.76l-37.047-19.101   c-0.128,0.256-0.256,0.513-0.385,0.897l37.817,19.485C770.088,470.657,769.96,470.272,769.704,469.76z"/>
	<path style="opacity:0.45;fill:#a5c6ec;enable-background:new    ;" d="M767.781,465.786c-0.128-0.128-0.128-0.256-0.256-0.256   l-32.817-16.921c-0.385,0.128-0.641,0.385-0.897,0.641l34.612,17.819C768.294,466.683,768.037,466.17,767.781,465.786z"/>
	<path style="opacity:0.45;fill:#a5c6ec;enable-background:new    ;" d="M761.756,459.248l-21.152-10.896   c-0.897-0.256-1.923-0.385-2.82-0.385l26.792,13.845C763.679,460.914,762.781,460.145,761.756,459.248z"/>
</g>
<linearGradient id="SVGID_2_-i0" gradientUnits="userSpaceOnUse" x1="3785.9087" y1="-3135.6907" x2="7734.5659" y2="-3135.6907" gradientTransform="matrix(0.1 0 0 -0.1 0 18)">
	<stop offset="0" style="stop-color:#cee0f9"/>
	<stop offset="1" style="stop-color:#a5c6ec"/>
</linearGradient>
<path style="opacity:0.7;fill:url(#SVGID_2_-i0);enable-background:new    ;" d="M728.811,161.715  c-2.307-2.948-4.615-5.769-6.922-8.589L378.591,416.176c2.051,3.077,4.23,6.025,6.538,8.973  c12.691,16.537,27.177,30.638,43.072,42.431l4.358-5.256l168.572-40.252c-0.128,2.179-0.256,4.358-0.385,6.538l-170.239,40.637  c1.282,0.897,2.692,1.923,3.974,2.82l165.88-39.611c-0.128,2.179-0.513,3.846-0.769,6.153L441.02,476.426  c0.769,0.513,1.666,1.026,2.564,1.538l155.625-37.176c-0.513,2.307-1.026,5.128-1.667,7.435l-145.498,34.74  c1.41,0.769,2.82,1.538,4.102,2.179l140.626-33.586c-0.641,1.795-1.282,4.102-1.923,6.41l-130.627,31.151  c1.538,0.769,3.077,1.41,4.615,2.179l124.602-29.74c-0.769,2.307-1.538,4.615-2.564,6.538l-112.937,26.92  c2.051,0.769,4.102,1.538,6.153,2.307l104.989-25.126c-1.282,2.436-2.564,4.871-3.974,7.435l-89.606,21.408  c1.41,0.385,2.692,0.769,4.102,1.154l84.094-19.998c-1.41,3.077-3.205,5.64-4.871,8.204l-64.48,15.383  c2.564,0.513,5.128,1.026,7.692,1.41l53.456-12.691c-0.641,1.282-1.41,1.923-2.179,2.82c-1.282,1.538-2.436,3.077-3.846,4.487  l-31.151,7.435c4.23,0.385,8.461,0.641,12.691,0.769l14.101-3.333c-1.154,1.154-2.307,2.307-3.461,3.333  c44.483-0.897,89.093-15.511,127.038-44.611C783.548,392.588,801.495,256.705,728.811,161.715z M549.983,317.724  c0.128,0.128,0.385,0.385,0.513,0.385l-1.026,0.256L549.983,317.724z M545.753,322.98l8.332-2.051  c0.385,0.513,0.641,0.385,0.897,0.641c1.795,1.41,3.461,3.077,5.128,4.359l-21.023,4.999L545.753,322.98z M535.497,335.671  l27.818-6.666c1.666,1.795,3.077,3.077,4.615,4.743l-38.329,9.102L535.497,335.671z M527.421,345.67l42.175-9.999  c1.538,1.795,3.077,3.589,4.615,5.384l-53.328,12.691L527.421,345.67z M517.166,358.361l59.353-14.229  c1.282,1.795,2.307,3.205,3.589,5.128l-68.839,16.409L517.166,358.361z M507.552,370.283l74.608-17.819  c1.026,1.41,2.051,3.333,2.948,4.615l-83.453,19.87L507.552,370.283z M498.707,380.923l87.811-21.023  c1.026,1.923,2.179,4.358,3.205,6.281l-98.451,23.459L498.707,380.923z M489.092,392.46l101.528-24.228  c1.026,2.436,1.795,4.358,2.564,6.41l-110.629,26.279L489.092,392.46z M478.837,405.023l115.372-27.561  c0.641,2.051,1.282,3.974,1.795,5.512L472.94,412.33L478.837,405.023z M470.761,415.022l125.884-29.997  c0.641,2.564,1.154,4.615,1.795,7.051l-134.858,32.176L470.761,415.022z M460.377,427.713l138.447-33.073  c0.385,2.051,0.769,4.102,1.026,5.64l-145.241,34.612L460.377,427.713z M450.891,439.763l149.343-35.637  c0.256,2.051,0.385,3.718,0.513,5.769L444.994,447.07L450.891,439.763z M434.739,459.633l7.307-9.23l158.958-37.945  c0.128,2.692,0.128,4.743,0.256,7.435L434.739,459.633z"/>
<path style="fill:#EBF2FE;" d="M471.658,543.342l65.25-15.639c4.871-2.82,9.743-5.512,14.229-9.358l-96.528,23.075  C460.377,542.829,465.889,543.085,471.658,543.342z"/>
<path style="fill:#EBF2FE;" d="M550.88,509.884L436.79,537.06c3.718,1.282,7.435,2.564,11.281,3.205l108.322-25.895  c1.795-1.41,3.461-2.948,5.128-4.615C558.059,510.012,554.47,510.012,550.88,509.884z"/>
<path style="fill:#ebf3fa;" d="M564.982,506.551l-14.101,3.333c3.589,0.128,7.051,0.128,10.64,0  C562.674,508.858,563.828,507.704,564.982,506.551z"/>
<path style="fill:#EBF2FE;" d="M394.23,509.115l-1.666,2.051c1.282,1.154,2.564,2.564,3.846,3.333l81.402-19.485  c-3.077-1.154-6.025-2.436-8.973-3.718L394.23,509.115z"/>
<path style="fill:#ebf3fa;" d="M593.44,461.555l-124.602,29.741c2.948,1.282,6.025,2.564,8.973,3.718l112.937-26.92  C591.902,466.299,592.671,463.863,593.44,461.555z"/>
<path style="fill:#EBF2FE;" d="M414.228,485.015l-7.435,8.717l45.38-10.768c-2.82-1.538-5.64-3.205-8.461-4.999L414.228,485.015z"/>
<path style="fill:#ebf3fa;" d="M599.209,440.917l-155.625,37.176c2.82,1.666,5.64,3.333,8.461,4.999l145.498-34.74  C598.183,445.916,598.696,443.096,599.209,440.917z"/>
<path style="fill:#EBF2FE;" d="M403.845,497.706l-5.897,7.307l66.275-15.768c-2.692-1.282-5.384-2.564-7.948-3.974L403.845,497.706z  "/>
<path style="fill:#ebf3fa;" d="M596.773,451.685l-140.626,33.586c2.692,1.41,5.256,2.692,7.948,3.974l130.884-31.279  C595.491,455.659,596.132,453.479,596.773,451.685z"/>
<path style="fill:#EBF2FE;" d="M399.999,517.447c2.179,1.666,4.487,3.205,6.794,4.871l88.709-21.152  c-3.846-1.154-7.691-2.307-11.409-3.718L399.999,517.447z"/>
<path style="fill:#ebf3fa;" d="M589.082,472.324l-104.989,25.126c3.846,1.41,7.563,2.564,11.409,3.718l89.606-21.408  C586.518,477.195,587.8,474.759,589.082,472.324z"/>
<path style="fill:#ebf3fa;" d="M554.983,321.698c-0.256-0.256-0.513-0.256-0.897-0.641l-8.332,2.051l-6.666,8.076l21.023-4.999  C558.572,324.775,556.777,323.108,554.983,321.698z"/>
<path style="fill:#ebf3fa;" d="M596.645,385.025l-125.884,29.997l-7.307,9.23l134.858-32.176  C597.799,389.64,597.286,387.589,596.645,385.025z"/>
<path style="fill:#EBF2FE;" d="M422.048,531.035c2.82,1.41,5.769,2.948,8.717,3.846l107.425-25.638  c-5.384-0.513-10.896-1.154-16.28-2.051L422.048,531.035z"/>
<path style="fill:#ebf3fa;" d="M573.186,497.193c0.769-0.897,1.538-1.666,2.179-2.82l-53.456,12.691  c5.384,0.897,10.768,1.538,16.28,2.051l31.151-7.435C570.622,500.398,571.904,498.731,573.186,497.193z"/>
<path style="fill:#ebf3fa;" d="M549.983,317.724l-0.513,0.641l1.026-0.256C550.368,318.109,550.111,317.853,549.983,317.724z"/>
<path style="fill:#EBF2FE;" d="M409.229,523.857c2.692,2.051,5.384,3.589,8.076,5.128l96.913-23.203  c-4.871-1.026-9.871-2.179-14.742-3.461L409.229,523.857z"/>
<path style="fill:#ebf3fa;" d="M583.569,482.194l-84.094,19.998c4.871,1.282,9.743,2.436,14.742,3.461l64.48-15.383  C580.493,487.835,582.159,485.271,583.569,482.194z"/>
<path style="fill:#EBF2FE;" d="M422.304,475.016l-5.897,7.307l24.613-5.897c-2.179-1.41-4.358-2.82-6.538-4.358L422.304,475.016z"/>
<path style="fill:#ebf3fa;" d="M600.363,432.456l-165.88,39.611c2.179,1.538,4.359,2.948,6.538,4.358l158.573-37.817  C599.85,436.43,600.234,434.635,600.363,432.456z"/>
<path style="fill:#ebf3fa;" d="M582.159,352.464l-74.608,17.819l-6.025,6.794l83.453-19.87  C584.21,355.669,583.185,353.874,582.159,352.464z"/>
<path style="fill:#ebf3fa;" d="M569.597,335.543l-42.175,9.999l-6.666,8.076l53.328-12.691  C572.673,339.132,571.135,337.338,569.597,335.543z"/>
<path style="fill:#ebf3fa;" d="M576.519,344.132l-59.353,14.229l-5.897,7.307l68.839-16.409  C578.955,347.337,577.801,345.927,576.519,344.132z"/>
<path style="fill:#ebf3fa;" d="M586.518,360.028l-87.811,21.023l-7.435,8.717l98.451-23.459  C588.825,364.258,587.672,361.951,586.518,360.028z"/>
<path style="fill:#ebf3fa;" d="M563.315,329.005l-27.818,6.666l-5.897,7.307l38.329-9.102  C566.392,332.082,564.982,330.8,563.315,329.005z"/>
<path style="fill:#EBF2FE;" d="M425.894,470.401l4.615-1.154c-0.769-0.513-1.538-1.154-2.307-1.666L425.894,470.401z"/>
<path style="fill:#ebf3fa;" d="M601.132,422.072L432.56,462.325l-4.358,5.256c0.769,0.513,1.538,1.154,2.307,1.666l170.239-40.637  C600.875,426.431,601.003,424.252,601.132,422.072z"/>
<path style="fill:#EBF2FE;" d="M520.755,535.394l-31.279,7.435C500.117,541.419,510.757,539.368,520.755,535.394z"/>
<path style="fill:#ebf3fa;" d="M600.363,403.997l-149.343,35.637l-5.897,7.307l155.753-37.176  C600.619,407.715,600.619,406.177,600.363,403.997z"/>
<path style="fill:#ebf3fa;" d="M442.046,450.403l-7.307,9.23l166.393-39.739c0-2.692,0-4.871-0.256-7.435L442.046,450.403z"/>
<path style="fill:#ebf3fa;" d="M594.209,377.59l-115.373,27.561l-5.897,7.307l123.064-29.356  C595.491,381.564,594.978,379.513,594.209,377.59z"/>
<path style="fill:#ebf3fa;" d="M598.824,394.768l-138.447,33.073l-5.897,7.307l145.241-34.612  C599.593,398.87,599.209,396.819,598.824,394.768z"/>
<path style="fill:#ebf3fa;" d="M590.62,368.232L489.092,392.46l-6.538,8.589l110.501-26.408  C592.415,372.59,591.645,370.668,590.62,368.232z"/>
<path style="fill:#EEEEEE;" d="M663.305,229.785h3.846v8.973h-3.846V229.785z M663.305,306.7h3.846v10.255h-3.846V306.7z   M656.895,209.274h5.128v10.255h-5.128V209.274z M656.895,286.189h5.128v10.255h-5.128V286.189z M650.485,190.045h5.128v8.973  h-5.128V190.045z M650.485,266.96h5.128v10.255h-5.128V266.96z M650.485,346.439h5.128v10.255h-5.128V346.439z M641.512,169.535  h5.128v10.255h-5.128V169.535z M641.512,249.014h5.128v10.255h-5.128V249.014z M641.512,325.929h5.128v10.255h-5.128V325.929z   M635.102,229.785h3.846v8.973h-3.846V229.785z M635.102,306.7h3.846v10.255h-3.846V306.7z M628.693,209.274h3.846v10.255h-3.846  V209.274z M628.693,286.189h3.846v10.255h-3.846V286.189z M628.693,365.668h3.846v8.973h-3.846V365.668z M621.001,190.045h3.846  v8.973h-3.846V190.045z M621.001,266.96h3.846v10.255h-3.846V266.96z M621.001,346.439h3.846v10.255h-3.846V346.439z   M612.028,169.535h5.128v10.255h-5.128V169.535z M612.028,249.014h5.128v10.255h-5.128V249.014z M612.028,325.929h5.128v10.255  h-5.128V325.929z M612.028,405.407h5.128v8.973h-5.128V405.407z M605.618,151.588h5.128v7.692h-5.128V151.588z M605.618,229.785  h5.128v8.973h-5.128V229.785z M605.618,306.7h5.128v10.255h-5.128V306.7z M605.618,386.179h5.128v8.973h-5.128V386.179z   M599.209,131.077h3.846v8.973h-3.846V131.077z M599.209,209.274h3.846v10.255h-3.846V209.274z M599.209,286.189h3.846v10.255  h-3.846V286.189z M599.209,365.668h3.846v8.973h-3.846V365.668z M591.517,111.849h5.128v8.973h-5.128V111.849z M591.517,190.045  h5.128v8.973h-5.128V190.045z M591.517,266.96h5.128v10.255h-5.128V266.96z M591.517,346.439h5.128v10.255h-5.128V346.439z   M591.517,425.918h5.128v8.973h-5.128V425.918z M583.826,169.535h5.128v10.255h-5.128V169.535z M583.826,249.014h5.128v10.255  h-5.128V249.014z M583.826,325.929h5.128v10.255h-5.128V325.929z M583.826,405.407h5.128v8.973h-5.128V405.407z M577.416,151.588  h3.846v7.692h-3.846V151.588z M577.416,229.785h3.846v8.973h-3.846V229.785z M577.416,306.7h3.846v10.255h-3.846V306.7z   M577.416,386.179h3.846v8.973h-3.846V386.179z M569.725,131.077h5.128v8.973h-5.128V131.077z M569.725,209.274h5.128v10.255h-5.128  V209.274z M569.725,286.189h5.128v10.255h-5.128V286.189z M569.725,365.668h5.128v8.973h-5.128V365.668z M563.315,111.849h5.128  v8.973h-5.128V111.849z M563.315,190.045h5.128v8.973h-5.128V190.045z M563.315,266.96h5.128v10.255h-5.128V266.96z   M563.315,346.439h5.128v10.255h-5.128V346.439z M563.315,425.918h5.128v8.973h-5.128V425.918z M554.342,91.338h5.128v8.973h-5.128  V91.338z M554.342,169.535h5.128v10.255h-5.128V169.535z M554.342,249.014h5.128v10.255h-5.128V249.014z M554.342,325.929h5.128  v10.255h-5.128V325.929z M554.342,405.407h5.128v8.973h-5.128V405.407z M547.932,151.588h3.846v7.692h-3.846V151.588z   M547.932,229.785h3.846v8.973h-3.846V229.785z M547.932,306.7h3.846v10.255h-3.846V306.7z M547.932,386.179h3.846v8.973h-3.846  V386.179z M541.523,131.077h3.846v8.973h-3.846V131.077z M541.523,209.274h3.846v10.255h-3.846V209.274z M541.523,286.189h3.846  v10.255h-3.846V286.189z M541.523,365.668h3.846v8.973h-3.846V365.668z M541.523,445.147h3.846v8.973h-3.846V445.147z   M533.831,111.849h5.128v8.973h-5.128V111.849z M533.831,190.045h5.128v8.973h-5.128V190.045z M533.831,266.96h5.128v10.255h-5.128  V266.96z M533.831,346.439h5.128v10.255h-5.128V346.439z M533.831,425.918h5.128v8.973h-5.128V425.918z M526.14,91.338h3.846v8.973  h-3.846V91.338z M526.14,169.535h3.846v10.255h-3.846V169.535z M526.14,249.014h3.846v10.255h-3.846V249.014z M526.14,325.929h3.846  v10.255h-3.846V325.929z M526.14,405.407h3.846v8.973h-3.846V405.407z M518.448,72.109h5.128v8.973h-5.128V72.109z M518.448,151.588  h5.128v7.692h-5.128V151.588z M518.448,229.785h5.128v8.973h-5.128V229.785z M518.448,306.7h5.128v10.255h-5.128V306.7z   M518.448,386.179h5.128v8.973h-5.128V386.179z M518.448,465.658h5.128v8.973h-5.128V465.658z M512.038,131.077h5.128v8.973h-5.128  V131.077z M512.038,209.274h5.128v10.255h-5.128V209.274z M512.038,286.189h5.128v10.255h-5.128V286.189z M512.038,365.668h5.128  v8.973h-5.128V365.668z M512.038,445.147h5.128v8.973h-5.128V445.147z M505.629,111.849h3.846v8.973h-3.846V111.849z   M505.629,190.045h3.846v8.973h-3.846V190.045z M505.629,266.96h3.846v10.255h-3.846V266.96z M505.629,346.439h3.846v10.255h-3.846  V346.439z M505.629,425.918h3.846v8.973h-3.846V425.918z M496.655,91.338h5.128v8.973h-5.128V91.338z M496.655,169.535h5.128v10.255  h-5.128V169.535z M496.655,249.014h5.128v10.255h-5.128V249.014z M496.655,325.929h5.128v10.255h-5.128V325.929z M496.655,405.407  h5.128v8.973h-5.128V405.407z M488.964,72.109h6.41v8.973h-6.41V72.109z M488.964,151.588h6.41v7.692h-6.41V151.588z   M488.964,229.785h6.41v8.973h-6.41V229.785z M488.964,306.7h6.41v10.255h-6.41V306.7z M488.964,386.179h6.41v8.973h-6.41V386.179z   M488.964,465.658h6.41v8.973h-6.41V465.658z M482.554,131.077h5.128v8.973h-5.128V131.077z M482.554,209.274h5.128v10.255h-5.128  V209.274z M482.554,286.189h5.128v10.255h-5.128V286.189z M482.554,365.668h5.128v8.973h-5.128V365.668z M482.554,445.147h5.128  v8.973h-5.128V445.147z M476.145,111.849h5.128v8.973h-5.128V111.849z M476.145,190.045h5.128v8.973h-5.128V190.045z   M476.145,266.96h5.128v10.255h-5.128V266.96z M476.145,346.439h5.128v10.255h-5.128V346.439z M476.145,425.918h5.128v8.973h-5.128  V425.918z M468.453,91.338h3.846v8.973h-3.846V91.338z M468.453,169.535h3.846v10.255h-3.846V169.535z M468.453,249.014h3.846  v10.255h-3.846V249.014z M468.453,325.929h3.846v10.255h-3.846V325.929z M468.453,405.407h3.846v8.973h-3.846V405.407z   M231.299,238.758h-3.846v-8.973h3.846V238.758z M238.99,336.184h-3.846v-10.255h3.846V336.184z M238.99,259.269h-3.846v-10.255  h3.846V259.269z M246.682,356.695h-3.846v-10.255h3.846V356.695z M246.682,277.216h-3.846V266.96h3.846V277.216z M246.682,199.019  h-3.846v-8.973h3.846V199.019z M254.373,374.641h-3.846v-8.973h3.846V374.641z M254.373,296.445h-3.846v-10.255h3.846V296.445z   M254.373,219.53h-3.846v-10.255h3.846V219.53z M260.783,316.955h-5.128V306.7h5.128V316.955z M260.783,238.758h-5.128v-8.973h5.128  V238.758z M267.192,336.184h-3.846v-10.255h3.846V336.184z M267.192,259.269h-3.846v-10.255h3.846V259.269z M267.192,179.79h-3.846  v-10.255h3.846V179.79z M276.166,356.695h-5.128v-10.255h5.128V356.695z M276.166,277.216h-5.128V266.96h5.128V277.216z   M276.166,199.019h-5.128v-8.973h5.128V199.019z M283.857,374.641h-5.128v-8.973h5.128V374.641z M283.857,296.445h-5.128v-10.255  h5.128V296.445z M283.857,219.53h-5.128v-10.255h5.128V219.53z M283.857,140.051h-5.128v-8.973h5.128V140.051z M290.267,395.152  h-5.128v-8.973h5.128V395.152z M290.267,316.955h-5.128V306.7h5.128V316.955z M290.267,238.758h-5.128v-8.973h5.128V238.758z   M290.267,159.279h-5.128v-7.692h5.128V159.279z M296.676,414.381h-3.846v-8.973h3.846V414.381z M296.676,336.184h-3.846v-10.255  h3.846V336.184z M296.676,259.269h-3.846v-10.255h3.846V259.269z M296.676,179.79h-3.846v-10.255h3.846V179.79z M305.65,434.892  h-5.128v-8.973h5.128V434.892z M305.65,356.695h-5.128v-10.255h5.128V356.695z M305.65,277.216h-5.128V266.96h5.128V277.216z   M305.65,199.019h-5.128v-8.973h5.128V199.019z M305.65,120.822h-5.128v-8.973h5.128V120.822z M312.059,374.641h-5.128v-8.973h5.128  V374.641z M312.059,296.445h-5.128v-10.255h5.128V296.445z M312.059,219.53h-5.128v-10.255h5.128V219.53z M312.059,140.051h-5.128  v-8.973h5.128V140.051z M318.469,395.152h-5.128v-8.973h5.128V395.152z M318.469,316.955h-5.128V306.7h5.128V316.955z   M318.469,238.758h-5.128v-8.973h5.128V238.758z M318.469,159.279h-5.128v-7.692h5.128V159.279z M326.16,414.381h-5.128v-8.973  h5.128V414.381z M326.16,336.184h-5.128v-10.255h5.128V336.184z M326.16,259.269h-5.128v-10.255h5.128V259.269z M326.16,179.79  h-5.128v-10.255h5.128V179.79z M326.16,100.311h-5.128v-8.973h5.128V100.311z M333.852,434.892h-3.846v-8.973h3.846V434.892z   M333.852,356.695h-3.846v-10.255h3.846V356.695z M333.852,277.216h-3.846V266.96h3.846V277.216z M333.852,199.019h-3.846v-8.973  h3.846V199.019z M333.852,120.822h-3.846v-8.973h3.846V120.822z M341.543,454.12h-5.128v-8.973h5.128V454.12z M341.543,374.641  h-5.128v-8.973h5.128V374.641z M341.543,296.445h-5.128v-10.255h5.128V296.445z M341.543,219.53h-5.128v-10.255h5.128V219.53z   M341.543,140.051h-5.128v-8.973h5.128V140.051z M347.953,395.152h-3.846v-8.973h3.846V395.152z M347.953,316.955h-3.846V306.7  h3.846V316.955z M347.953,238.758h-3.846v-8.973h3.846V238.758z M347.953,159.279h-3.846v-7.692h3.846V159.279z M354.363,414.381  h-3.846v-8.973h3.846V414.381z M354.363,336.184h-3.846v-10.255h3.846V336.184z M354.363,259.269h-3.846v-10.255h3.846V259.269z   M354.363,179.79h-3.846v-10.255h3.846V179.79z M354.363,100.311h-3.846v-8.973h3.846V100.311z M363.336,434.892h-5.128v-8.973  h5.128V434.892z M363.336,356.695h-5.128v-10.255h5.128V356.695z M363.336,277.216h-5.128V266.96h5.128V277.216z M363.336,199.019  h-5.128v-8.973h5.128V199.019z M363.336,120.822h-5.128v-8.973h5.128V120.822z M369.746,454.12h-5.128v-8.973h5.128V454.12z   M369.746,374.641h-5.128v-8.973h5.128V374.641z M369.746,296.445h-5.128v-10.255h5.128V296.445z M369.746,219.53h-5.128v-10.255  h5.128V219.53z M369.746,140.051h-5.128v-8.973h5.128V140.051z M376.155,474.631h-3.846v-8.973h3.846V474.631z M376.155,395.152  h-3.846v-8.973h3.846V395.152z M376.155,316.955h-3.846V306.7h3.846V316.955z M376.155,238.758h-3.846v-8.973h3.846V238.758z   M376.155,159.279h-3.846v-7.692h3.846V159.279z M376.155,81.083h-3.846v-8.973h3.846V81.083z M383.847,414.381h-5.128v-8.973h5.128  V414.381z M383.847,336.184h-5.128v-10.255h5.128V336.184z M383.847,259.269h-5.128v-10.255h5.128V259.269z M383.847,179.79h-5.128  v-10.255h5.128V179.79z M383.847,100.311h-5.128v-8.973h5.128V100.311z M392.82,434.892h-5.128v-8.973h5.128V434.892z   M392.82,356.695h-5.128v-10.255h5.128V356.695z M392.82,277.216h-5.128V266.96h5.128V277.216z M392.82,199.019h-5.128v-8.973h5.128  V199.019z M392.82,120.822h-5.128v-8.973h5.128V120.822z M399.23,454.12h-5.128v-8.973h5.128V454.12z M399.23,374.641h-5.128v-8.973  h5.128V374.641z M399.23,296.445h-5.128v-10.255h5.128V296.445z M399.23,219.53h-5.128v-10.255h5.128V219.53z M399.23,140.051  h-5.128v-8.973h5.128V140.051z M405.639,474.631h-5.128v-8.973h5.128V474.631z M405.639,395.152h-5.128v-8.973h5.128V395.152z   M405.639,316.955h-5.128V306.7h5.128V316.955z M405.639,238.758h-5.128v-8.973h5.128V238.758z M405.639,159.279h-5.128v-7.692  h5.128V159.279z M405.639,81.083h-5.128v-8.973h5.128V81.083z M413.331,414.381h-5.128v-8.973h5.128V414.381z M413.331,336.184  h-5.128v-10.255h5.128V336.184z M413.331,259.269h-5.128v-10.255h5.128V259.269z M413.331,179.79h-5.128v-10.255h5.128V179.79z   M413.331,100.311h-5.128v-8.973h5.128V100.311z M421.022,434.892h-3.846v-8.973h3.846V434.892z M421.022,356.695h-3.846v-10.255  h3.846V356.695z M421.022,277.216h-3.846V266.96h3.846V277.216z M421.022,199.019h-3.846v-8.973h3.846V199.019z M421.022,120.822  h-3.846v-8.973h3.846V120.822z M428.714,454.12h-5.128v-8.973h5.128V454.12z M428.714,374.641h-5.128v-8.973h5.128V374.641z   M428.714,296.445h-5.128v-10.255h5.128V296.445z M428.714,219.53h-5.128v-10.255h5.128V219.53z M428.714,140.051h-5.128v-8.973  h5.128V140.051z M435.123,474.631h-5.128v-8.973h5.128V474.631z M435.123,395.152h-5.128v-8.973h5.128V395.152z M435.123,316.955  h-5.128V306.7h5.128V316.955z M435.123,238.758h-5.128v-8.973h5.128V238.758z M435.123,159.279h-5.128v-7.692h5.128V159.279z   M435.123,81.083h-5.128v-8.973h5.128V81.083z M441.533,414.381h-5.128v-8.973h5.128V414.381z M441.533,336.184h-5.128v-10.255  h5.128V336.184z M441.533,259.269h-5.128v-10.255h5.128V259.269z M441.533,179.79h-5.128v-10.255h5.128V179.79z M441.533,100.311  h-5.128v-8.973h5.128V100.311z M451.788,434.892h-5.128v-8.973h5.128V434.892z M451.788,356.695h-5.128v-10.255h5.128V356.695z   M451.788,277.216h-5.128V266.96h5.128V277.216z M451.788,199.019h-5.128v-8.973h5.128V199.019z M451.788,120.822h-5.128v-8.973  h5.128V120.822z M459.48,454.12h-5.128v-8.973h5.128V454.12z M459.48,374.641h-5.128v-8.973h5.128V374.641z M459.48,296.445h-5.128  v-10.255h5.128V296.445z M459.48,219.53h-5.128v-10.255h5.128V219.53z M459.48,140.051h-5.128v-8.973h5.128V140.051z M459.48,60.572  h-5.128v-8.973h5.128V60.572z M465.889,474.631h-5.128v-8.973h5.128V474.631z M465.889,395.152h-5.128v-8.973h5.128V395.152z   M465.889,316.955h-5.128V306.7h5.128V316.955z M465.889,238.758h-5.128v-8.973h5.128V238.758z M465.889,159.279h-5.128v-7.692  h5.128V159.279z M460.762,81.083v-8.973h5.128v8.973H460.762z"/>
<g>
	<polygon style="fill:#FFFFFF;" points="250.527,132.359 232.581,132.359 232.581,212.607 250.527,230.298  "/>
	<polygon style="fill:#FFFFFF;" points="217.198,132.359 199.251,132.359 199.251,179.79 217.198,197.481  "/>
	<polygon style="fill:#FFFFFF;" points="183.868,132.359 167.203,132.359 167.203,146.973 183.868,164.663  "/>
	<polygon style="fill:#FFFFFF;" points="314.623,132.359 297.958,132.359 297.958,278.241 314.623,295.291  "/>
	<polygon style="fill:#FFFFFF;" points="330.006,310.289 345.389,325.416 345.389,132.359 330.006,132.359  "/>
	<polygon style="fill:#FFFFFF;" points="282.575,132.359 264.628,132.359 264.628,245.424 282.575,263.115  "/>
</g>

        </g>
    </g>
</g>

<!-- ITEM 1 -->
<g>
    <defs>
        
        <clipPath id="clip-path-id-viewbox-item-1">
            <rect x="0.0" y="0.0" width="328.0" height="198.0"/>
        </clipPath>
    </defs>
    <g transform="translate(366.0 145.0) rotate(0.0 371.0 224.0) scale(2.2621951219512195 2.2626262626262625)">
        <g clip-path="url(#clip-path-id-viewbox-item-1)" transform="translate(-0.0 -0.0)">

<rect x="0" y="0" fill="#EEEEEE" width="328" height="198"/>
<linearGradient id="SVGID_1_-i1" gradientUnits="userSpaceOnUse" x1="2.804" y1="17.9785" x2="323.629" y2="17.9785">
	<stop offset="0" style="stop-color:#B0CDFC"/>
	<stop offset="1" style="stop-color:#81AEF2"/>
</linearGradient>
<path fill="url(#SVGID_1_-i1)" d="M323.629,34.49H2.804V14.275c0-7.073,5.734-12.807,12.807-12.807h308.018V34.49z"/>
<path fill="#78A9EF" d="M40.639,38.084H5.712V17.771c0-7.019,5.69-12.709,12.709-12.709h22.218V38.084z"/>
<rect x="14.175" y="12.573" fill="#89B3F4" width="18" height="18"/>
<linearGradient id="SVGID_2_-i1" gradientUnits="userSpaceOnUse" x1="5.3333" y1="59" x2="64.8333" y2="59">
	<stop offset="0" style="stop-color:#EEEEEE"/>
	<stop offset="1" style="stop-color:#D6D7D8"/>
</linearGradient>
<rect x="5.333" y="52" fill="url(#SVGID_2_-i1)" width="59.5" height="14"/>
<rect x="59.167" y="52" fill="#F2F2F2" width="59.5" height="14"/>
<linearGradient id="SVGID_3_-i1" gradientUnits="userSpaceOnUse" x1="113" y1="59" x2="172.5" y2="59">
	<stop offset="0" style="stop-color:#EEEEEE"/>
	<stop offset="1" style="stop-color:#D6D7D8"/>
</linearGradient>
<rect x="113" y="52" fill="url(#SVGID_3_-i1)" width="59.5" height="14"/>
<rect x="166.833" y="52" fill="#F2F2F2" width="59.5" height="14"/>
<linearGradient id="SVGID_4_-i1" gradientUnits="userSpaceOnUse" x1="220.6667" y1="59" x2="280.1667" y2="59">
	<stop offset="0" style="stop-color:#EEEEEE"/>
	<stop offset="1" style="stop-color:#D6D7D8"/>
</linearGradient>
<rect x="220.667" y="52" fill="url(#SVGID_4_-i1)" width="59.5" height="14"/>
<rect x="263.5" y="52" fill="#F2F2F2" width="59.5" height="14"/>
<path fill="#F7F7F7" d="M296,45.333H63.333c-3.3,0-6-2.7-6-6v-2.667c0-3.3,2.7-6,6-6H296c3.3,0,6,2.7,6,6v2.667  C302,42.633,299.3,45.333,296,45.333z"/>
<circle fill="#23286B" cx="74.459" cy="41.238" r="1.5"/>
<circle fill="#23286B" cx="82.458" cy="41.238" r="1.5"/>
<circle fill="#23286B" cx="90.457" cy="41.238" r="1.5"/>

        </g>
    </g>
</g>

<!-- ITEM 2 -->
<g>
    <defs>
        
        <clipPath id="clip-path-id-viewbox-item-2">
            <rect x="0.0" y="0.0" width="225.0" height="32.0"/>
        </clipPath>
    </defs>
    <g transform="translate(463.0 398.0) rotate(0.0 268.5 38.5) scale(2.3866666666666667 2.40625)">
        <g clip-path="url(#clip-path-id-viewbox-item-2)" transform="translate(-0.0 -0.0)">

<g>
	<path fill="#A1C3FC" d="M223.5,32H1.5C0.672,32,0,31.328,0,30.5v-29C0,0.672,0.672,0,1.5,0h222c0.828,0,1.5,0.672,1.5,1.5v29   C225,31.328,224.328,32,223.5,32z M3,29h219V3H3V29z"/>
</g>
<rect x="7" y="8" fill="#D6D7D8" width="211" height="16"/>
<path fill="#A1C3FC" d="M124,24H7V8h117C132.362,8,132.362,24,124,24z"/>

        </g>
    </g>
</g>

<!-- ITEM 3 -->
<g>
    <defs>
        
        <clipPath id="clip-path-id-viewbox-item-3">
            <rect x="0.0" y="0.0" width="250.0" height="285.0"/>
        </clipPath>
    </defs>
    <g transform="translate(135.0 722.0) rotate(0.0 162.0 184.0) scale(1.296 1.2912280701754386)">
        <g clip-path="url(#clip-path-id-viewbox-item-3)" transform="translate(-0.0 -0.0)">

<g id="woman-i3">
	
		<linearGradient id="R_shoe_1_-i3" gradientUnits="userSpaceOnUse" x1="6310.293" y1="6517.3394" x2="5231.7129" y2="5762.333" gradientTransform="matrix(0.0741 0 0 0.0741 -253.6966 -187.4563)">
		<stop offset="0.1291" style="stop-color:#428DFC"/>
		<stop offset="0.9987" style="stop-color:#1D72D8"/>
	</linearGradient>
	<path id="R_shoe-i3" fill="url(#R_shoe_1_-i3)" d="M157.852,242.614l-15.19,42.367H250c0,0-5.517-10.612-23.859-18.456   s-35.462-23.911-35.462-23.911L157.852,242.614"/>
	
		<linearGradient id="L_sleeve_1_-i3" gradientUnits="userSpaceOnUse" x1="4028.7678" y1="4562.4634" x2="5923.5483" y2="4562.4634" gradientTransform="matrix(0.0741 0 0 0.0741 -253.6966 -187.4563)">
		<stop offset="0" style="stop-color:#A1C3FC"/>
		<stop offset="0.3464" style="stop-color:#91B9F7"/>
		<stop offset="0.6955" style="stop-color:#81AEF2"/>
		<stop offset="1" style="stop-color:#78A9EF"/>
	</linearGradient>
	<path id="L_sleeve-i3" fill="url(#L_sleeve_1_-i3)" d="M82.118,74.503c0,0,12.826,51.975,31.794,67.663   c6.332,5.238,17.038,8.196,28.532,6.242c10.407-1.954,20.299-5.999,29.103-11.833l-0.598,41.173c0,0,27.147,31.62,6.604,29.693   c-23.125-2.171-30.109,5.537-39.62,12.187c-9.511,6.65-34.457,15.986-60.517-11.047s-48.506-54.581-17.61-116.815l0,0"/>
	
		<linearGradient id="R_leg_1_-i3" gradientUnits="userSpaceOnUse" x1="5607.2944" y1="4343.7427" x2="5776.7119" y2="5423.7803" gradientTransform="matrix(0.0741 0 0 0.0741 -253.6966 -187.4563)">
		<stop offset="0" style="stop-color:#23286B"/>
		<stop offset="0.4316" style="stop-color:#1D225F"/>
		<stop offset="1" style="stop-color:#151A4F"/>
	</linearGradient>
	<path id="R_leg-i3" fill="url(#R_leg_1_-i3)" d="M185.923,238.814c0,0-16.169,7.029-38.451-1.519c0,0,0.625-9.201,5.734-87.883   c1.114-16.99,2.473-37.047,4.049-61.176c0,0,23.343-0.135,28.316,16.176c1.006,3.284,3.614,8.142,4.185,14.303   C192.065,143.332,181.521,200.519,185.923,238.814z"/>
	<path id="R_leg-2-i3" fill="#23286B" d="M187.363,104.411c-4.973-16.312-28.343-16.284-28.343-16.284l0,0   c-10.272-0.435-22.799,15.362-27.337,26.218c-9.403,22.554-44.185,102.837-45.599,103.326c-1.413,0.462-44.674,7.056-44.674,7.056   s-4.239,52.111,33.858,57.756c37.446,5.537,81.685,12.431,95.68-104.71l0.054,0.081c0,0,6.06-57.593,18.75-59.113   C189.401,113.885,188.613,109.08,187.363,104.411z"/>
	
		<linearGradient id="R_hand_1_-i3" gradientUnits="userSpaceOnUse" x1="5888.811" y1="4789.6733" x2="5591.3198" y2="5720.2871" gradientTransform="matrix(0.0741 0 0 0.0741 -253.6966 -187.4563)">
		<stop offset="0" style="stop-color:#FFBEB6"/>
		<stop offset="1" style="stop-color:#F2A19C"/>
	</linearGradient>
	<path id="R_hand-i3" fill="url(#R_hand_1_-i3)" d="M152.634,190.015c0,0,24.103-7.925,32.528-21.74   c6.278-10.314,6.494-11.861,2.826-20.627s-2.826-18.646-5.081-22.608c-2.255-3.962,5.081-3.962,6.793,2.823   c1.685,6.785,3.668,13.001,3.967,11.02s-1.168-8.712-3.641-16.393c0,0-0.054-5.916,9.565,7.056   c9.62,12.974,9.891,22.038,8.206,29.936c-1.685,7.898-19.239,61.284-41.848,77.379l0,0L152.634,190.015"/>
	
		<linearGradient id="neck_1_-i3" gradientUnits="userSpaceOnUse" x1="4607.9316" y1="3754.3362" x2="4685.5635" y2="3355.0891" gradientTransform="matrix(0.0741 0 0 0.0741 -253.6966 -187.4563)">
		<stop offset="0" style="stop-color:#FFBEB6"/>
		<stop offset="1" style="stop-color:#F2A19C"/>
	</linearGradient>
	<path id="neck-i3" fill="url(#neck_1_-i3)" d="M104.157,62.533c0,0-6.875,15.85-6.902,30.696l-0.081,0.027   c-0.108,0.054-0.245,0.081-0.353,0.108c-1.521,0.326-7.011,0.57-18.832-8.577l5.027-21.007l2.093-3.474L104.157,62.533z"/>
	<path id="face-i3" fill="#FFBEB6" d="M98.748,10.531c0,0,11.766,8.523,18.859,8.875c6.82,0.353,3.94,6.812,2.691,8.251   c0,0,11.631,38.459-31.25,36.206c0,0-7.554-3.013-11.359-17.125c-3.778-14.114-8.315-14.601-3.778-26.462   c4.538-11.861,17.88-13.869,17.88-13.869L98.748,10.531z"/>
	<path id="texture-i3" opacity="0.51" fill="#FFFFFF" enable-background="new    " d="M85.732,269.266c0.163,0.081,0.353,0,0.407-0.163   c0.081-0.163,0-0.353-0.163-0.407c-0.163-0.081-0.353,0-0.407,0.163l0,0C85.488,269.023,85.569,269.212,85.732,269.266   L85.732,269.266z M88.667,262.183c0.163,0.054,0.353,0,0.435-0.163c0.054-0.163-0.027-0.353-0.191-0.407   c-0.135-0.081-0.326-0.027-0.407,0.135c0,0,0,0.027-0.027,0.027C88.449,261.938,88.503,262.128,88.667,262.183L88.667,262.183z    M91.656,255.126c0.163,0.081,0.353,0,0.407-0.163l0,0c0.054-0.163,0-0.353-0.163-0.435c-0.163-0.054-0.353,0.027-0.435,0.19   C91.412,254.882,91.493,255.044,91.656,255.126z M117.879,269.185c0.054,0.163,0.245,0.244,0.407,0.19l0,0   c0.163-0.054,0.245-0.217,0.191-0.38c0,0,0-0.027-0.027-0.027c-0.054-0.163-0.245-0.244-0.407-0.19   C117.906,268.832,117.825,269.023,117.879,269.185L117.879,269.185L117.879,269.185z M74.672,256.863   c0.108,0.108,0.326,0.135,0.435,0c0.109-0.135,0.135-0.326,0-0.435s-0.326-0.135-0.435,0l0,0   C74.563,256.538,74.536,256.727,74.672,256.863C74.672,256.836,74.672,256.836,74.672,256.863L74.672,256.863z M80.107,251.462   c0.081,0.108,0.245,0.108,0.353,0.027h0.027c0.027,0,0.054,0,0.054-0.027c0.081-0.081,0.108-0.163,0.081-0.271   c0-0.081-0.054-0.135-0.081-0.19c-0.108-0.108-0.326-0.135-0.435,0C79.998,251.109,79.998,251.326,80.107,251.462L80.107,251.462z    M101.601,268.181c0,0.163,0.163,0.326,0.326,0.326c0.191,0,0.326-0.163,0.326-0.326c0-0.19-0.135-0.326-0.326-0.326   C101.737,267.856,101.601,268.018,101.601,268.181z M101.628,260.527c0,0.163,0.163,0.298,0.326,0.298l0,0   c0.163,0,0.326-0.108,0.326-0.271v-0.027c0-0.19-0.163-0.326-0.326-0.326C101.765,260.201,101.628,260.337,101.628,260.527z    M54.862,261.64c0.218,0.244,0.598,0.271,0.842,0.054c0.245-0.217,0.272-0.597,0.054-0.841l0,0   c-0.218-0.244-0.598-0.271-0.842-0.054l0,0C54.672,260.989,54.645,261.368,54.862,261.64L54.862,261.64z M65.868,252.113   c0.218,0.244,0.598,0.271,0.842,0.054c0.245-0.217,0.272-0.597,0.054-0.841c-0.218-0.244-0.598-0.271-0.842-0.054   C65.678,251.462,65.65,251.842,65.868,252.113C65.84,252.086,65.868,252.086,65.868,252.113L65.868,252.113z M89.618,278.576   c-0.027,0.326,0.218,0.624,0.544,0.624h0.027c0.326,0.027,0.598-0.19,0.652-0.516v-0.027c0-0.326-0.245-0.624-0.571-0.651   C89.916,278.006,89.646,278.25,89.618,278.576z M90.623,264.083c-0.027,0.326,0.245,0.624,0.571,0.651s0.625-0.244,0.652-0.57l0,0   c0.027-0.326-0.218-0.624-0.544-0.651l0,0C90.949,263.486,90.678,263.73,90.623,264.083L90.623,264.083L90.623,264.083z    M91.656,249.589c-0.027,0.326,0.218,0.624,0.544,0.651c0.326,0.027,0.625-0.217,0.652-0.543v-0.027   c0.027-0.326-0.218-0.597-0.544-0.651l0,0C91.982,248.992,91.683,249.237,91.656,249.589L91.656,249.589z M72.905,267.367   c0.299,0.135,0.679,0,0.815-0.298c0.135-0.298,0.027-0.651-0.272-0.787c-0.299-0.163-0.679-0.054-0.815,0.244   C72.471,266.824,72.579,267.204,72.905,267.367L72.905,267.367z M79.401,254.339c0.299,0.163,0.652,0.054,0.815-0.244   c0,0,0,0,0-0.027c0.163-0.298,0.027-0.651-0.245-0.814c-0.299-0.163-0.652-0.027-0.815,0.244v0.027   c-0.163,0.271-0.054,0.624,0.218,0.76C79.401,254.312,79.401,254.339,79.401,254.339L79.401,254.339z M110.542,283.597   c0.108,0.298,0.462,0.489,0.761,0.38c0.299-0.108,0.489-0.462,0.38-0.76c-0.108-0.298-0.435-0.489-0.761-0.38l0,0   C110.597,282.946,110.433,283.298,110.542,283.597L110.542,283.597L110.542,283.597z M105.923,269.809   c0.081,0.298,0.407,0.489,0.734,0.38h0.027c0.326-0.081,0.489-0.435,0.407-0.733v-0.027c-0.108-0.326-0.462-0.489-0.761-0.38   C105.977,269.158,105.813,269.51,105.923,269.809L105.923,269.809z M101.302,256.022c0.108,0.298,0.462,0.489,0.761,0.38   c0.299-0.081,0.489-0.407,0.38-0.733v-0.027c-0.108-0.326-0.435-0.489-0.761-0.407   C101.385,255.371,101.194,255.696,101.302,256.022L101.302,256.022z M60.867,264.354c0.027,0.135,0.108,0.244,0.218,0.326   c0.245,0.163,0.571,0.081,0.734-0.163c0.163-0.244,0.081-0.597-0.163-0.76l0,0c-0.163-0.108-0.353-0.108-0.516-0.027h-0.027   c-0.081,0.027-0.163,0.108-0.218,0.19C60.813,264.029,60.813,264.191,60.867,264.354L60.867,264.354z M67.96,253.66   c0.245,0.163,0.598,0.081,0.734-0.19c0.163-0.244,0.081-0.57-0.191-0.733c-0.245-0.163-0.571-0.081-0.734,0.163   C67.635,253.145,67.716,253.498,67.96,253.66L67.96,253.66L67.96,253.66z M74.862,242.641c0.272,0.163,0.598,0.054,0.734-0.19   c0.135-0.244,0.081-0.57-0.163-0.733c-0.245-0.163-0.598-0.081-0.761,0.163C74.509,242.125,74.591,242.478,74.862,242.641   C74.835,242.641,74.835,242.641,74.862,242.641z M98.096,282.701c0.081,0.271,0.353,0.462,0.652,0.38   c0.272-0.054,0.462-0.326,0.407-0.624v-0.027c-0.054-0.298-0.353-0.462-0.625-0.407l0,0   C98.205,282.132,98.042,282.43,98.096,282.701L98.096,282.701z M95.161,270.053c0.054,0.298,0.353,0.462,0.625,0.407l0,0   c0.272-0.054,0.462-0.326,0.407-0.597c0-0.027,0-0.027,0-0.054c-0.054-0.298-0.353-0.462-0.625-0.407l0,0   C95.298,269.483,95.107,269.755,95.161,270.053L95.161,270.053z M92.254,257.433c0.081,0.298,0.38,0.462,0.652,0.38   c0.272-0.081,0.462-0.353,0.38-0.651c-0.081-0.271-0.353-0.462-0.652-0.407C92.362,256.836,92.2,257.134,92.254,257.433   L92.254,257.433z M75.297,276.622c-0.054,0.271,0.135,0.543,0.407,0.597h0.027c0.299,0.054,0.571-0.135,0.625-0.435   c0.054-0.298-0.135-0.57-0.435-0.624C75.623,276.133,75.351,276.323,75.297,276.622L75.297,276.622z M77.444,263.811   c-0.054,0.298,0.135,0.57,0.435,0.624c0.299,0.054,0.571-0.135,0.625-0.435c0.054-0.298-0.135-0.57-0.435-0.624   C77.77,263.322,77.498,263.513,77.444,263.811z M79.59,251.001c-0.054,0.298,0.135,0.57,0.435,0.624   c0.163,0.027,0.326-0.027,0.462-0.135h0.027c0.081-0.081,0.135-0.19,0.163-0.298c0.027-0.298-0.163-0.57-0.462-0.624   C79.917,250.539,79.618,250.729,79.59,251.001L79.59,251.001z M121.792,279.038c0.163,0.244,0.462,0.298,0.707,0.135   c0,0,0.027,0,0.027-0.027c0.245-0.163,0.299-0.489,0.135-0.733c0,0,0,0,0-0.027c-0.191-0.244-0.516-0.271-0.761-0.108   C121.656,278.467,121.602,278.793,121.792,279.038L121.792,279.038L121.792,279.038z M114.238,268.48   c0.163,0.244,0.516,0.298,0.761,0.135c0.245-0.19,0.299-0.516,0.108-0.76c-0.163-0.217-0.489-0.271-0.734-0.135   C114.129,267.882,114.075,268.208,114.238,268.48C114.238,268.453,114.238,268.48,114.238,268.48L114.238,268.48z M48.151,254.501   c0.135,0.108,0.326,0.108,0.462-0.027c0.108-0.135,0.108-0.326-0.027-0.462c-0.135-0.108-0.326-0.108-0.462,0.027l0,0   C48.014,254.176,48.014,254.393,48.151,254.501z M78.287,265.575c0,0.163,0.163,0.298,0.326,0.298c0.162,0,0.299-0.163,0.299-0.326   c0-0.163-0.163-0.298-0.326-0.298C78.395,265.277,78.259,265.413,78.287,265.575L78.287,265.575z M77.988,257.949   c0.027,0.19,0.163,0.298,0.353,0.298c0.163,0,0.299-0.163,0.299-0.326l0,0c0-0.163-0.135-0.298-0.299-0.298h-0.027   C78.15,257.623,77.988,257.758,77.988,257.949C77.988,257.922,77.988,257.949,77.988,257.949L77.988,257.949z M77.743,250.294   c0,0.163,0.135,0.298,0.326,0.298c0.163,0,0.299-0.135,0.299-0.326l0,0c0-0.163-0.135-0.298-0.299-0.298h-0.027   C77.878,249.969,77.743,250.105,77.743,250.294L77.743,250.294L77.743,250.294z M63.395,259.252   c0.163,0.054,0.326-0.027,0.407-0.19c0.054-0.163,0-0.326-0.163-0.407c0,0,0,0-0.027,0c-0.163-0.054-0.326,0-0.407,0.163v0.027   C63.15,259.007,63.232,259.17,63.395,259.252L63.395,259.252z M66.085,252.059c0.163,0.054,0.326-0.027,0.407-0.19   c0.054-0.163-0.027-0.353-0.191-0.407c-0.163-0.081-0.326,0-0.407,0.135c0,0,0,0,0,0.027   C65.84,251.815,65.922,252.004,66.085,252.059L66.085,252.059L66.085,252.059z M92.553,258.301   c0.081,0.163,0.245,0.244,0.407,0.163c0.163-0.081,0.245-0.244,0.163-0.407c-0.054-0.163-0.218-0.244-0.38-0.19   c0,0-0.027,0-0.027,0.027C92.553,257.949,92.472,258.139,92.553,258.301C92.553,258.274,92.553,258.301,92.553,258.301   L92.553,258.301z M89.374,251.326c0.081,0.163,0.272,0.244,0.435,0.163c0.163-0.081,0.218-0.244,0.135-0.407l0,0   c-0.054-0.163-0.218-0.244-0.38-0.19c0,0-0.027,0-0.027,0.027C89.374,250.974,89.292,251.163,89.374,251.326L89.374,251.326   L89.374,251.326z M47.389,254.746c0.163,0.108,0.407,0.054,0.516-0.108c0.108-0.163,0.054-0.407-0.108-0.516l0,0   c-0.163-0.108-0.38-0.054-0.489,0.108l0,0C47.172,254.393,47.199,254.61,47.389,254.746   C47.362,254.746,47.362,254.746,47.389,254.746L47.389,254.746z M78.776,268.343c0.027,0.19,0.218,0.298,0.38,0.271   c0.027,0,0.027,0,0.054,0c0.191-0.054,0.299-0.244,0.272-0.435c-0.054-0.19-0.245-0.326-0.435-0.298   C78.857,267.937,78.748,268.153,78.776,268.343L78.776,268.343L78.776,268.343z M76.874,259.822   c0.054,0.19,0.245,0.326,0.435,0.271l0,0c0.191-0.054,0.299-0.244,0.272-0.435c-0.054-0.19-0.245-0.326-0.435-0.298   C76.982,259.414,76.847,259.604,76.874,259.822L76.874,259.822z M75.025,251.245c0.027,0.19,0.191,0.326,0.38,0.298   c0.027,0,0.027,0,0.054,0c0.191-0.054,0.299-0.244,0.272-0.435c-0.054-0.19-0.245-0.326-0.435-0.298   C75.107,250.864,74.971,251.055,75.025,251.245L75.025,251.245z M60.867,264.354c0.054,0.027,0.081,0.054,0.135,0.054   c0.191,0.027,0.38-0.081,0.407-0.271l0,0c0.027-0.19-0.081-0.38-0.272-0.407h-0.027c-0.191-0.027-0.38,0.081-0.407,0.271l0,0   C60.678,264.137,60.732,264.273,60.867,264.354L60.867,264.354z M62.253,255.371c-0.054,0.19,0.081,0.38,0.272,0.407l0,0   c0.191,0.027,0.38-0.081,0.435-0.271c0.027-0.19-0.108-0.38-0.299-0.435C62.471,255.044,62.28,255.18,62.253,255.371   L62.253,255.371z M63.776,246.794c-0.027,0.19,0.108,0.38,0.299,0.407c0.191,0.027,0.38-0.108,0.407-0.298   c0.027-0.19-0.108-0.38-0.299-0.407l0,0C63.992,246.468,63.803,246.577,63.776,246.794L63.776,246.794L63.776,246.794z    M93.531,257.352c0.108,0.163,0.326,0.19,0.489,0.081l0,0c0.163-0.108,0.191-0.326,0.081-0.489   c-0.108-0.163-0.299-0.217-0.462-0.108h-0.027C93.449,256.944,93.422,257.189,93.531,257.352L93.531,257.352z M88.531,250.186   c0.108,0.163,0.299,0.19,0.462,0.108c0,0,0.027,0,0.027-0.027c0.163-0.108,0.218-0.298,0.108-0.462v-0.027   c-0.108-0.163-0.353-0.217-0.516-0.108C88.449,249.807,88.422,250.023,88.531,250.186L88.531,250.186L88.531,250.186z    M54.047,256.049c-0.054,0.326,0.191,0.651,0.516,0.706c0.326,0.054,0.652-0.163,0.707-0.516c0.054-0.326-0.191-0.651-0.516-0.706   C54.4,255.479,54.101,255.696,54.047,256.049z M99.727,273.988c0.218,0.271,0.598,0.326,0.869,0.135   c0.272-0.19,0.353-0.597,0.135-0.868c-0.191-0.271-0.598-0.353-0.869-0.135l0,0C99.591,273.337,99.537,273.717,99.727,273.988   L99.727,273.988z M90.895,261.884c0.191,0.271,0.598,0.326,0.869,0.135c0.272-0.217,0.326-0.597,0.135-0.895   c-0.218-0.271-0.598-0.326-0.869-0.108C90.76,261.233,90.705,261.613,90.895,261.884z M82.063,249.779   c0.191,0.271,0.598,0.326,0.869,0.135c0.272-0.217,0.326-0.597,0.135-0.895c-0.191-0.271-0.571-0.326-0.842-0.135l0,0   c-0.272,0.19-0.353,0.543-0.163,0.814C82.036,249.752,82.036,249.752,82.063,249.779L82.063,249.779z M73.015,278.223   c0.081,0.326,0.435,0.543,0.761,0.462l0,0c0.326-0.081,0.516-0.407,0.435-0.733l0,0c-0.081-0.326-0.407-0.543-0.734-0.462   C73.15,277.571,72.961,277.897,73.015,278.223z M69.509,263.648c0.081,0.326,0.407,0.543,0.734,0.462l0,0   c0.326-0.081,0.544-0.407,0.489-0.733c-0.081-0.326-0.407-0.543-0.734-0.489C69.645,262.97,69.428,263.295,69.509,263.648   L69.509,263.648z M65.977,249.101c0.081,0.326,0.435,0.516,0.761,0.435c0.326-0.081,0.516-0.407,0.435-0.733   c-0.081-0.326-0.407-0.543-0.734-0.462C66.112,248.423,65.895,248.748,65.977,249.101L65.977,249.101L65.977,249.101z    M61.656,268.316c0.081,0.326,0.407,0.543,0.734,0.489c0.326-0.054,0.544-0.38,0.489-0.706c-0.054-0.326-0.38-0.543-0.707-0.489   l0,0C61.819,267.665,61.601,267.991,61.656,268.316L61.656,268.316z M58.776,253.66c0.054,0.326,0.353,0.543,0.679,0.489h0.027   c0.326-0.054,0.544-0.38,0.489-0.733c-0.054-0.326-0.38-0.543-0.734-0.489C58.938,253.009,58.721,253.334,58.776,253.66z    M92.661,279.146c0.191,0.271,0.598,0.353,0.869,0.163c0.272-0.19,0.353-0.57,0.163-0.841c-0.163-0.271-0.544-0.38-0.815-0.19   c0,0-0.027,0-0.027,0.027C92.553,278.467,92.472,278.847,92.661,279.146C92.634,279.146,92.661,279.146,92.661,279.146z    M84.374,266.715c0.191,0.271,0.598,0.353,0.869,0.163c0.272-0.19,0.353-0.57,0.163-0.841c-0.163-0.271-0.544-0.38-0.815-0.19   c0,0-0.027,0-0.027,0.027C84.264,266.037,84.183,266.416,84.374,266.715C84.346,266.715,84.374,266.715,84.374,266.715z    M76.085,254.285c0.191,0.271,0.598,0.353,0.869,0.163c0.272-0.19,0.353-0.57,0.163-0.841c-0.191-0.298-0.571-0.38-0.869-0.19   C75.976,253.606,75.895,254.013,76.085,254.285L76.085,254.285z M67.77,271.845c0.108,0.244,0.38,0.353,0.625,0.244   c0.218-0.108,0.326-0.353,0.245-0.597c-0.081-0.244-0.353-0.353-0.571-0.271c-0.027,0-0.027,0-0.054,0.027   C67.797,271.329,67.689,271.601,67.77,271.845L67.77,271.845z M63.34,261.504c0.108,0.244,0.38,0.353,0.625,0.244   c0.245-0.108,0.353-0.38,0.245-0.624l0,0c-0.108-0.244-0.38-0.353-0.598-0.244c0,0,0,0-0.027,0   C63.34,260.989,63.232,261.26,63.34,261.504L63.34,261.504z M58.911,251.163c0.108,0.244,0.38,0.353,0.625,0.244   c0.245-0.108,0.353-0.38,0.245-0.624s-0.38-0.353-0.625-0.244l0,0C58.911,250.648,58.803,250.92,58.911,251.163L58.911,251.163z    M83.803,254.393c0.163,0.19,0.462,0.19,0.652,0l0,0c0.191-0.163,0.191-0.462,0.027-0.651l-0.027-0.027   c-0.191-0.163-0.489-0.163-0.652,0.027C83.613,253.959,83.613,254.23,83.803,254.393L83.803,254.393z M75.732,246.549   c0.191,0.19,0.489,0.163,0.679-0.027c0.163-0.19,0.163-0.462,0-0.651c-0.191-0.19-0.489-0.19-0.679,0   C75.542,246.061,75.542,246.359,75.732,246.549L75.732,246.549z M48.259,255.831c0.135,0.19,0.38,0.244,0.571,0.108l0,0   c0.191-0.108,0.245-0.353,0.135-0.516l-0.027-0.027c-0.108-0.19-0.353-0.271-0.544-0.163c0,0-0.027,0-0.027,0.027   C48.178,255.343,48.123,255.587,48.259,255.831C48.232,255.804,48.232,255.804,48.259,255.831L48.259,255.831z"/>
	
		<linearGradient id="sweater_1_-i3" gradientUnits="userSpaceOnUse" x1="3903.5125" y1="4603.7964" x2="5422.7017" y2="6489.6875" gradientTransform="matrix(0.0741 0 0 0.0741 -253.6966 -187.4563)">
		<stop offset="0" style="stop-color:#A1C3FC"/>
		<stop offset="0.3464" style="stop-color:#91B9F7"/>
		<stop offset="0.6955" style="stop-color:#81AEF2"/>
		<stop offset="1" style="stop-color:#78A9EF"/>
	</linearGradient>
	<path id="sweater-i3" fill="url(#sweater_1_-i3)" d="M113.585,219.137c-69.593,48.121-102.174,34.116-102.174,34.116   c-17.337-14.004-13.152-40.848,0.761-71.299c6.957-15.226,10.245-38.975,23.017-61.637c9.077-15.633,21.576-29.014,36.549-39.165   c2.282,0.38,4.511,1.086,6.631,2.062l-0.38,1.548c2.201,1.683,4.185,3.067,5.951,4.18c0.353,0.217,0.679,0.407,1.006,0.624   c0.135,0.081,0.272,0.163,0.407,0.244c0.299,0.19,0.598,0.353,0.897,0.516c1.739,0.978,3.56,1.791,5.462,2.443L113.585,219.137z"/>
	<path id="R_sleeve-i3" fill="#A1C3FC" d="M70.324,78.276L70.324,78.276c-45.543,52.518-29.702,110.844-11.277,143.548   s44.946,29.909,55.815,25.838c10.87-4.072,19.565-9.744,41.414-1.873c19.403,7.002,40.761-5.075,40.761-5.075l-28.777-65.002   c-10,3.447-20.598,4.858-31.169,4.153c-11.631-1.005-21.25-6.54-26.06-13.19c-14.403-19.922-13.777-73.444-13.777-73.444   S90.325,96.623,70.324,78.276z"/>
	<path id="hair-i3" fill="#23286B" d="M48.993,13.625C33.204,25.838,34.862,45.516,37.2,50.482c2.581,4.994,4.919,10.096,6.93,15.335   c0.299,1.14,0.571,2.307,0.761,3.474c0.924,5.347-0.054,10.042-0.897,15.253c-0.979,5.889-0.924,11.507,3.614,15.877   c0.571,0.543,1.278-0.435,0.734-0.978c-7.011-6.704-1.929-16.366-1.739-24.535c0.407,2.28,0.462,4.614,0.191,6.921   c-1.033,6.107,0.027,12.376,3.044,17.778c31.63-3.175,50.952-27.032,50.952-27.032c-9.266-7.464-14.701-13.19-16.087-20.003   c3.071,8.929,10.598,15.633,19.837,17.668c0.761,0.19,0.869-1.032,0.135-1.194c-11.196-2.443-19.403-12.023-20.055-23.45   c0.788-4.153,2.174-8.196,4.131-11.942c8.75-17.913,0.544-26.517,0.544-26.517c5.245,0.76,13.56,6.107,13.56,6.107   C88.26-9.499,64.753,1.412,48.993,13.625z"/>
	<path id="eyeglasses-i3" fill="#3E8AF8" d="M117.226,9.012c-1.549-4.559-5.761-7.817-9.403-7.247l0,0   c-3.641,0.57-5.38,4.75-3.832,9.337c0.191,0.516,0.407,1.032,0.652,1.547c-1.957,0.922-3.369,2.714-3.832,4.804   c-0.218-0.19-0.407-0.407-0.625-0.57c-1.766-1.519-4.104-2.253-6.413-2.008c-4.212,0.678-6.195,5.51-4.402,10.829   c0.842,2.524,2.392,4.75,4.457,6.405c1.44,1.194,3.206,1.927,5.054,2.062c0.462,0.027,0.924,0,1.359-0.054   c2.065-0.326,3.805-1.764,4.484-3.718c0.815-2.307,0.788-4.804-0.081-7.083c-0.598-1.764-1.549-3.392-2.799-4.777   c0.571-1.846,1.44-4.045,3.451-4.723c0.054,0.108,0.135,0.19,0.191,0.271c0.108,0.054,0.191,0.163,0.272,0.271l0.027,0.027   c0,0,0.027,0,0.027,0.027c1.168,1.221,2.581,2.199,4.131,2.904c0.679,0.271,1.386,0.489,2.093,0.706   c0.163,0.027,0.326,0.108,0.489,0.163c0.218,0.081,0.435,0.135,0.679,0.217c0.081,0,0.163,0,0.245,0   C117.037,17.751,118.749,13.571,117.226,9.012z M103.45,23.451c0.761,2.035,0.788,4.261,0.081,6.297   c-0.571,1.629-1.984,2.823-3.695,3.121c-1.929,0.19-3.859-0.407-5.326-1.683c-1.848-1.465-3.206-3.447-3.94-5.699   c-1.549-4.641,0.054-8.848,3.614-9.418c0.353-0.054,0.734-0.081,1.114-0.054c1.549,0.135,3.017,0.76,4.212,1.737   C101.33,19.244,102.688,21.225,103.45,23.451z M112.987,17.127c-2.989,0.462-6.467-2.334-7.799-6.215   c-1.305-3.908,0.054-7.464,3.017-7.925c2.989-0.462,6.467,2.334,7.799,6.215C117.336,13.083,115.977,16.665,112.987,17.127   L112.987,17.127z"/>
</g>

        </g>
    </g>
</g>

<!-- ITEM 4 -->
<g>
    <defs>
        
        <clipPath id="clip-path-id-viewbox-item-4">
            <rect x="0.0" y="0.0" width="109.054" height="264.402"/>
        </clipPath>
    </defs>
    <g transform="translate(1113.0 414.0) rotate(0.0 142.0 344.5) scale(2.6042144258807562 2.605880439633588)">
        <g clip-path="url(#clip-path-id-viewbox-item-4)" transform="translate(-0.0 -0.0)">

<linearGradient id="SVGID_1_-i4" gradientUnits="userSpaceOnUse" x1="-3.309466e-006" y1="255.8808" x2="44.8322" y2="255.8808">
	<stop offset="0" style="stop-color:#B4CFFD"/>
	<stop offset="1" style="stop-color:#78A9EF"/>
</linearGradient>
<path fill="url(#SVGID_1_-i4)" d="M44.292,248.763c-0.2,5.814,1.504,15.338-0.287,15.113c-7.239,0.364-12.134,0.471-19.261,0.124  c-7.09-0.345-16.942,0.201-23.959,0.401c-3.609-0.401,5.919-8.573,14.335-12.23c4.298-1.868,9.471-3.539,14.034-3.809  c3.862-0.229,5.429,0.546,9.022-1.002C39.005,248.044,44.095,247.649,44.292,248.763z"/>
<path fill="#78A9EF" d="M92.834,246.353c0,5.562,2.634,17.2,0.155,17.355c-6.985-0.069-12.995-0.017-20.322-0.268  c-0.882-5.689,0.837-11.713-0.512-17.375c7.04-0.365,7.697,0.232,14.326-0.332C87.159,246.242,92.834,245.429,92.834,246.353z"/>
<path fill="#F2A19C" d="M36.592,74.952c-2.731,4.075-7.276,6.306-10.361,10.111c-3.334,4.112-2.157,5.654-0.139,10.389  c3.105,7.284,8.408,15.512,9.998,23c0.862,4.059-0.721,8.633-0.51,12.474c0.371,6.748,3.808,6.763,5.486,1.026  c1.185-4.054,0.778-8.423,1.5-12.526c0.256-1.453,1.29-3.366,1.263-4.974c-0.063-3.689-0.637-1.402-2.385-4.474  c-3.333-5.856-1.626-13.51-5.3-19.413c2.753-1.671,8.283-6.154,9.473-9.113c1.453-3.615-1.609-6.987-5.336-8.865  c0.78-1.675,1.235-3.252,1.21-4.982c-1.506,2.188-2.746,4.517-4.372,6.645C37.402,73.63,36.226,75.531,36.592,74.952z"/>
<path fill="#151A4F" d="M45.592,101.452c-6.283,4.358-6.71,19.35-7.5,26.876c-1.388,13.231-4.06,26.516-5.512,39.622  c-2.846,25.699-12.175,50.651-18.461,75.892c-0.593,2.38-1.277,4.668-1.45,7.034c5.259,0.928,11.233-1.389,16.423-1.436  c5.187-0.047,10.568-0.437,15.399,0.962c3.184-7.449-0.335-14.79,0.101-22.45c0.306-5.379,3.176-14.255,4.5-19.5  c1.166-4.617,0.601-15.966,2-20.5c2.819-9.134,5.874-15.692,8.5-25c2.709-9.603,2.66-18.463,4-28c0.761-5.414,0.646-7.585,2-13  c1.322-5.288-2.751-11.388,0.325-15.924C61.204,107.112,48.085,104.296,45.592,101.452z"/>
<linearGradient id="SVGID_2_-i4" gradientUnits="userSpaceOnUse" x1="76.767" y1="210.1477" x2="52.267" y2="134.1477">
	<stop offset="0" style="stop-color:#23286B"/>
	<stop offset="1" style="stop-color:#151A4F"/>
</linearGradient>
<path fill="url(#SVGID_2_-i4)" d="M69.592,104.452c-1.449,12.091,2.8,20.929,4.513,36.986c1.089,10.208,1.481,19.893,4.362,29.891  c4.918,17.068,10.581,34.522,13.625,52.023c0.935,5.376,1.659,10.813,2.389,16.072c0.37,2.662,2.531,10.601,1.121,13.026  c-1.625,2.797-11.807,0.908-15.51,0.904c-4.823-0.005-11,1.098-16.45,0.411c-0.05-7.313-3.052-18.522-4.076-26.964  c-1.196-9.864-0.883-19.778,0.024-29.464c2.034-21.72-11.581-41.175-13.706-62.395c-0.485-4.845-0.752-9.234-0.29-13.992  c0.53-5.464,3.887-9.662,3.574-15.408c6.329-0.744,13.565-0.569,20.074-0.665C69.331,105.468,70.448,104.326,69.592,104.452z"/>
<path fill="#FFBEB6" d="M99.592,76.452c1.327,1.938,1.886,4.314,3.561,6.263c1.726,2.008,3.116,3.452,3.931,5.98  c0.668,2.072,1.788,4.626,1.952,6.757c0.21,2.745-1.517,3.025-3.45,4.757c-3.794,3.401-5.917,7.168-10.812,9.522  c-2.757,1.326-5.482,3.373-8.198,4.838c-2.023,1.092-9.32,5.684-9.677,6.989c-1.707-0.913-2.866-3.46-4.476-4.538  c8.287-7.067,14.504-16.352,23.33-23.062c-1.952-4.456-5.794-8.062-7.567-12.706c3.271-2.397,7.786-2.424,11.33-4.293  C99.388,77.215,99.747,76.212,99.592,76.452z"/>
<linearGradient id="SVGID_3_-i4" gradientUnits="userSpaceOnUse" x1="-59.7842" y1="171.5106" x2="-36.2479" y2="171.5106" gradientTransform="matrix(0.9933 0.1156 -0.1156 0.9933 110.5655 -95.2166)">
	<stop offset="0" style="stop-color:#428DFC"/>
	<stop offset="1" style="stop-color:#1D72D8"/>
</linearGradient>
<path fill="url(#SVGID_3_-i4)" d="M54.502,58.819c-0.09-2.998-0.279-6.26-2.255-8.517c-5.35,4.675-7.557,11.956-11.912,17.569  c-2.795,3.603-6.424,6.453-10.014,9.264c3.235,7.69,11.133,13.188,19.468,13.552C55.022,81.155,54.83,69.689,54.502,58.819z"/>
<linearGradient id="SVGID_4_-i4" gradientUnits="userSpaceOnUse" x1="-47.4148" y1="181.0418" x2="-5.4156" y2="181.0418" gradientTransform="matrix(0.9933 0.1156 -0.1156 0.9933 110.5655 -95.2166)">
	<stop offset="0" style="stop-color:#428DFC"/>
	<stop offset="1" style="stop-color:#1D72D8"/>
</linearGradient>
<path fill="url(#SVGID_4_-i4)" d="M54.154,48.838c-1.144,0.671-2.275,1.45-2.989,2.568c-0.948,1.485-1.348,3.362-1.082,5.104  c1.356,8.889-1.799,11.374-2.005,18.314c-0.117,3.92,0.603,11.67,0.079,15.557c-0.942,6.994-4.97,12.687-8.918,17.141  c9.461,8.106,19.76,12.623,32.206,12.066c-0.378-3.223,0.202-5.331,0.325-7.826c0.064-1.291,0.703-1.006,0.945-1.647  c0.215-0.569-0.731-1.093-0.478-1.645c0.238-0.519,0.915-0.753,1.154-1.288c0.191-0.427,0.066-1.299,0.284-1.724  c6.814-13.262,12.546-33.73,13.684-48.703c0.18-2.371,0.205-5.025-1.392-6.786c-0.583-0.642-1.336-1.104-2.095-1.523  C74.797,43.439,63.092,43.594,54.154,48.838z"/>
<linearGradient id="SVGID_5_-i4" gradientUnits="userSpaceOnUse" x1="10.9743" y1="172.7056" x2="-18.8529" y2="164.7729" gradientTransform="matrix(0.9933 0.1156 -0.1156 0.9933 110.5655 -95.2166)">
	<stop offset="0" style="stop-color:#428DFC"/>
	<stop offset="1" style="stop-color:#1D72D8"/>
</linearGradient>
<path fill="url(#SVGID_5_-i4)" d="M85.481,49.312c3.35,1.721,3.5,8.6,6.543,13.368c4.506,7.059,7.727,10.392,12.524,20.384  c-2.051,3.633-0.896,2.803-3.71,5.883s-6.475,5.565-10.599,6.192c-2.314-6.675-4.628-13.35-6.942-20.025  c-0.442-1.274-0.886-2.554-1.523-3.741c-0.606-1.129-1.379-2.161-2.005-3.279c-3.597-6.427-1.54-15.298,4.746-19.136  C84.734,49.144,84.872,48.999,85.481,49.312z"/>
<path fill="#F2A19C" d="M61.482,30.78c1.004,2.661,2.016,5.359,2.312,8.188c0.296,2.829-0.666,4.795-2.422,7.032  c1.209,4.036,7.623,5.278,13.393-0.785c-2.713-7.83-1.289-16.829-0.252-25.05c-3.989,2.775-10.284,6.093-14.273,8.869  C60.906,29.342,61.223,30.093,61.482,30.78z"/>
<linearGradient id="SVGID_6_-i4" gradientUnits="userSpaceOnUse" x1="-17.6486" y1="119.4226" x2="-47.7736" y2="119.1726" gradientTransform="matrix(0.9933 0.1156 -0.1156 0.9933 110.5655 -95.2166)">
	<stop offset="0" style="stop-color:#FFBEB6"/>
	<stop offset="1" style="stop-color:#F2A19C"/>
</linearGradient>
<path fill="url(#SVGID_6_-i4)" d="M63.446,32.996c1.969-0.137,3.965-0.278,5.824-0.888c4.247-1.393,7.276-5.15,8.464-9.248  c1.188-4.098,0.745-8.497-0.318-12.655c-0.229-0.896-0.508-1.823-1.164-2.51c-1.31-1.372-3.559-1.302-5.49-1.122  c-2.062,0.192-4.169,0.395-6.042,1.215c-3.946,1.728-6.917,6.13-11.263,5.624c-0.426,3.493-1.525,6.924-1.406,10.444  s1.844,7.351,5.316,8.68C59.276,33.267,61.404,33.137,63.446,32.996z"/>
<g>
	<path fill="#E94A47" d="M60.458,19.617c-0.987-0.115-1.816-0.568-2.333-1.275c-1.246-1.704-0.406-4.445,1.872-6.111   c1.26-0.922,2.738-1.362,4.058-1.209c0.987,0.115,1.816,0.568,2.333,1.275c0.622,0.851,0.753,1.968,0.369,3.148   c-0.365,1.121-1.161,2.174-2.241,2.963C63.256,19.33,61.778,19.77,60.458,19.617z M63.939,12.015   c-1.071-0.125-2.293,0.248-3.352,1.022c-1.833,1.341-2.575,3.455-1.655,4.714c0.45,0.616,1.141,0.814,1.642,0.872   c1.071,0.125,2.293-0.248,3.352-1.022c0.912-0.667,1.58-1.543,1.88-2.466c0.282-0.865,0.202-1.664-0.225-2.248   C65.13,12.272,64.44,12.073,63.939,12.015z"/>
</g>
<g>
	<path fill="#E94A47" d="M56.516,12.529c-0.93-0.108-1.653-0.525-2.034-1.175c-0.907-1.544,0.322-3.892,2.797-5.345   c2.368-1.39,5.156-1.328,6.03,0.161c0.458,0.78,0.388,1.783-0.197,2.825c-0.538,0.956-1.46,1.851-2.599,2.521   C59.177,12.3,57.72,12.669,56.516,12.529z M61.159,5.988c-0.978-0.114-2.239,0.216-3.374,0.883   c-1.925,1.131-3.043,2.952-2.441,3.977c0.28,0.477,0.855,0.637,1.288,0.688c0.978,0.114,2.24-0.216,3.375-0.882   c0.988-0.581,1.782-1.344,2.234-2.148c0.404-0.719,0.477-1.368,0.207-1.829C62.166,6.198,61.592,6.038,61.159,5.988z"/>
</g>
<g>
	<path fill="#E94A47" d="M60.239,12.345c-0.005-0.218-0.294-0.693-0.435-0.796l0.486-0.873c0.403,0.214,0.936,1.051,0.949,1.648   L60.239,12.345z"/>
</g>
<radialGradient id="SVGID_7_-i4" cx="-35.2529" cy="124.1277" r="4.49" gradientTransform="matrix(0.9933 0.1156 -0.1156 0.9933 110.5655 -95.2166)" gradientUnits="userSpaceOnUse">
	<stop offset="0" style="stop-color:#E94A47;stop-opacity:0.3"/>
	<stop offset="1" style="stop-color:#E94A47;stop-opacity:0"/>
</radialGradient>
<circle fill="url(#SVGID_7_-i4)" cx="61.201" cy="24.004" r="4.49"/>
<path fill="#E94A47" d="M80.765,4.615c0.933-0.473,1.467-1.461,2.183-2.225c1.516-1.616,4.368-2.095,5.931-0.524  c1.179,1.184,1.281,3.025,1.815,4.609c0.534,1.583,2.162,3.177,3.676,2.471c0.76-0.354,1.174-1.166,1.747-1.777  c1.195-1.275,3.256-1.637,4.814-0.846c1.558,0.791,2.482,2.669,2.158,4.386c-0.14,0.744-0.484,1.526-0.187,2.222  c0.257,0.601,0.903,0.914,1.409,1.328c1.731,1.42,1.601,4.523-0.243,5.793c-0.602,0.415-1.341,0.658-1.81,1.219  c-1.44,1.723,0.793,4.04,1.426,6.194c0.634,2.16-0.743,4.702-2.899,5.35c-1.783,0.536-4.053,0.01-5.272,1.417  c-1.158,1.337-0.47,3.447-1.068,5.111c-0.565,1.571-2.313,2.539-3.979,2.447c-1.666-0.092-3.193-1.107-4.175-2.457  c-1.185-1.63-1.661-3.705-2.922-5.276c-1.262-1.571-3.959-2.355-5.188-0.758c-3.794-2.189-2.968-8.397-6.338-11.196  c-2.647-2.199-5.505-2.606-7.15-5.629c-0.398-0.732-0.542-1.631-0.251-2.412c0.192-0.515,0.553-0.945,0.856-1.403  c1.593-2.407-0.212-4.624,0.532-7.413s3.069-5.714,5.907-5.184c1.748,0.327,2.971,1.844,4.258,3.071S79.178,5.419,80.765,4.615z"/>
<path id="texture_10_-i4" fill="#FFFFFF" enable-background="new    " d="M78.44,56.797c-0.155,0.031-0.26,0.148-0.229,0.303l0,0  c0.031,0.155,0.148,0.26,0.303,0.229l0,0c0.155-0.031,0.26-0.148,0.229-0.303l0,0C78.713,56.871,78.595,56.766,78.44,56.797  L78.44,56.797z M53.429,65.314c-0.117-0.105-0.272-0.075-0.378,0.043c-0.105,0.118-0.075,0.272,0.043,0.378l0,0  c0.117,0.105,0.272,0.075,0.378-0.043C53.645,65.592,53.546,65.419,53.429,65.314L53.429,65.314L53.429,65.314z M58.958,69.168  c-0.117-0.105-0.272-0.075-0.378,0.043c-0.105,0.117-0.075,0.272,0.043,0.378l0,0c0.117,0.105,0.272,0.075,0.378-0.043l0,0  C59.088,69.497,59.076,69.274,58.958,69.168L58.958,69.168z M65.733,57.781c-0.105,0.118-0.143,0.254-0.112,0.408  c0.117,0.105,0.254,0.143,0.408,0.112c0.105-0.118,0.143-0.254,0.093-0.34C66.043,57.719,65.907,57.682,65.733,57.781z   M69.355,63.528c-0.105,0.118-0.143,0.254-0.112,0.408c0.117,0.105,0.254,0.143,0.408,0.112c0.105-0.117,0.143-0.254,0.093-0.34  C69.664,63.466,69.46,63.41,69.355,63.528L69.355,63.528z M50.872,78.661c-0.136-0.037-0.31,0.062-0.347,0.198  c-0.037,0.136,0.062,0.31,0.198,0.347l0,0c0.136,0.037,0.31-0.062,0.347-0.198l0,0C51.107,78.872,51.008,78.698,50.872,78.661z   M57.481,80.177c-0.136-0.037-0.31,0.062-0.347,0.198c-0.037,0.136,0.062,0.31,0.198,0.347c0.136,0.037,0.31-0.062,0.347-0.198l0,0  C57.716,80.388,57.617,80.215,57.481,80.177L57.481,80.177L57.481,80.177z M71.406,54.432c-0.087,0.049-0.211,0.235-0.093,0.34  c0.049,0.087,0.235,0.211,0.34,0.093c0.087-0.049,0.211-0.235,0.093-0.34l0,0C71.715,54.37,71.579,54.333,71.406,54.432  L71.406,54.432z M74.18,59.8c-0.087,0.049-0.211,0.235-0.093,0.34c0.049,0.087,0.167,0.192,0.34,0.093  c0.087-0.049,0.192-0.167,0.093-0.34l0,0C74.402,59.788,74.266,59.751,74.18,59.8L74.18,59.8L74.18,59.8z M55.11,73.602  c-0.136-0.037-0.291-0.006-0.328,0.13c-0.037,0.136,0.012,0.223,0.13,0.328l0,0c0.136,0.037,0.291,0.006,0.328-0.13l0,0  C55.277,73.794,55.247,73.64,55.11,73.602L55.11,73.602z M60.821,75.458c-0.136-0.037-0.291-0.006-0.328,0.13  c-0.037,0.136,0.012,0.223,0.13,0.328l0,0c0.136,0.037,0.291,0.006,0.328-0.13l0,0C60.988,75.65,60.957,75.496,60.821,75.458  L60.821,75.458z M64.106,63.993c-0.117-0.105-0.272-0.075-0.378,0.043c-0.105,0.117-0.075,0.272,0.043,0.378  c0.117,0.105,0.272,0.075,0.378-0.043C64.254,64.253,64.223,64.098,64.106,63.993L64.106,63.993z M66.056,50.992  c-0.117-0.105-0.272-0.075-0.378,0.043c-0.105,0.118-0.075,0.272,0.043,0.378c0.117,0.105,0.272,0.075,0.378-0.043  C66.204,51.252,66.173,51.097,66.056,50.992L66.056,50.992z M71.33,55.509c-0.117-0.105-0.272-0.075-0.378,0.043  c-0.105,0.118-0.075,0.272,0.043,0.378s0.272,0.075,0.378-0.043C71.479,55.769,71.448,55.614,71.33,55.509L71.33,55.509z   M76.692,59.976c-0.117-0.105-0.272-0.075-0.378,0.043c-0.105,0.117-0.075,0.272,0.043,0.378s0.272,0.075,0.378-0.043  C76.772,60.217,76.742,60.063,76.692,59.976z M56.913,78.778c-0.155,0.031-0.26,0.148-0.229,0.303s0.148,0.26,0.303,0.229  c0.155-0.031,0.26-0.148,0.229-0.303C57.253,78.871,57.067,78.747,56.913,78.778L56.913,78.778z M61.989,64.511  c-0.136-0.037-0.31,0.062-0.347,0.198c-0.037,0.136,0.062,0.31,0.198,0.347c0.136,0.037,0.31-0.062,0.347-0.198l0,0  C62.224,64.722,62.125,64.548,61.989,64.511L61.989,64.511L61.989,64.511z M62.266,59.758c-0.136-0.037-0.31,0.062-0.347,0.198  c-0.037,0.136,0.062,0.31,0.198,0.347c0.136,0.037,0.291,0.006,0.347-0.198C62.501,59.969,62.402,59.795,62.266,59.758  L62.266,59.758z M68.787,62.129c-0.136-0.037-0.31,0.062-0.347,0.198c-0.037,0.136-0.006,0.291,0.198,0.347  c0.136,0.037,0.31-0.062,0.415-0.179C69.022,62.339,68.923,62.166,68.787,62.129L68.787,62.129z M78.14,54.154  c-0.117-0.105-0.272-0.075-0.378,0.043l0,0c-0.105,0.117-0.075,0.272,0.024,0.446c0.117,0.105,0.272,0.075,0.446-0.024  C78.288,54.414,78.257,54.259,78.14,54.154L78.14,54.154z M78.626,56.921c-0.136-0.037-0.223,0.012-0.31,0.062  c-0.037,0.136,0.012,0.223,0.062,0.31c0.136,0.037,0.223-0.012,0.31-0.062l0,0C78.725,57.094,78.694,56.939,78.626,56.921  L78.626,56.921L78.626,56.921z"/>
<g>
	<path fill="#E94A47" d="M89.268,44.659c-0.024-0.003-0.047-0.007-0.071-0.014c-3.181-0.847-5.929-3.266-7.172-6.313   c-0.106-0.259-0.201-0.523-0.297-0.787c-0.227-0.627-0.442-1.218-0.785-1.728c-0.41-0.609-1.155-1.157-1.877-1.013   c-0.218,0.043-0.442,0.149-0.678,0.261s-0.48,0.228-0.757,0.303c-1.692,0.46-3.342-0.992-3.898-2.6   c-0.308-0.892-0.389-1.819-0.468-2.716c-0.052-0.593-0.101-1.154-0.211-1.706c-0.618-3.11-3.096-5.538-5.37-7.57   c-1.795-1.603-3.532-3.359-3.361-5.652c0.092-1.235,0.746-2.321,1.379-3.372c0.732-1.215,1.424-2.362,1.067-3.524   c-0.081-0.264,0.068-0.544,0.332-0.625c0.265-0.079,0.544,0.069,0.625,0.332c0.487,1.588-0.354,2.983-1.167,4.333   c-0.572,0.95-1.164,1.932-1.238,2.929c-0.137,1.84,1.422,3.396,3.03,4.833c2.395,2.139,5.007,4.707,5.685,8.121   c0.12,0.605,0.174,1.219,0.226,1.813c0.077,0.876,0.149,1.702,0.417,2.477c0.41,1.187,1.588,2.258,2.691,1.961   c0.205-0.055,0.397-0.149,0.589-0.241c0.281-0.133,0.572-0.272,0.913-0.339c1.258-0.251,2.349,0.617,2.9,1.436   c0.412,0.612,0.658,1.29,0.896,1.946c0.091,0.251,0.182,0.503,0.283,0.75c1.127,2.764,3.619,4.957,6.503,5.725   c0.267,0.071,0.426,0.345,0.355,0.611C89.744,44.534,89.511,44.688,89.268,44.659z"/>
</g>
<path fill="#FFBEB6" d="M73.449,116.206c-1.654,1.568-14.281,1.24-11.2,5.218c0.304,0.41,6.324-1.496,7.541-0.441  c1.209,1.048,0.964,4.513,1.182,6.101c0.302,2.196-0.284,3.784-0.142,6.309c0.071,1.271,2.145,7.941,2.789,8.987  c0.414,0.673,1.46,0.115,1.562-1.202c0.163-2.101-0.793-5.768-0.851-6.669c-0.137-2.117,0.43-5.674,0.686-7.979  c0.403-3.629,1.227-3.689,2.341-5.832c0.311-0.598-1.041-4.331-2.341-4.517C75.198,115.911,74.378,115.875,73.449,116.206z"/>
<path fill="#89B3F4" d="M85.57,263.455c0.005-0.135,0.022,0.136,0.022,0c0-6.911-5.932-12.917-13.25-12.917  s-13.25,5.603-13.25,12.514c0,0.136,0.017,0.268,0.022,0.404H85.57z"/>

        </g>
    </g>
</g>

              </svg>