<?xml version="1.0" encoding="UTF-8"?>
<svg xmlns="http://www.w3.org/2000/svg" xmlns:xlink="http://www.w3.org/1999/xlink" width="50pt" height="50pt" viewBox="0 0 50 50" version="1.1">
<g id="surface9790885">
<path style=" stroke:none;fill-rule:nonzero;fill:rgb(40%,40%,40%);fill-opacity:1;" d="M 25 2.007812 C 12.308594 2.007812 2 12.316406 2 25.007812 C 2 37.699219 12.308594 48.007812 25 48.007812 C 37.691406 48.007812 48 37.699219 48 25.007812 C 48 12.316406 37.691406 2.007812 25 2.007812 Z M 25 4.007812 C 36.609375 4.007812 46 13.398438 46 25.007812 C 46 30.742188 43.703125 35.925781 39.988281 39.714844 C 38.160156 38.371094 35.929688 37.695312 34.039062 37.023438 C 32.976562 36.644531 32.019531 36.269531 31.320312 35.851562 C 30.652344 35.449219 30.28125 35.039062 30.085938 34.566406 C 29.992188 33.417969 30.011719 32.496094 30.019531 31.40625 C 30.140625 31.285156 30.292969 31.199219 30.417969 31.054688 C 30.710938 30.710938 31.007812 30.292969 31.292969 29.820312 C 31.777344 29.011719 32.132812 28.023438 32.332031 27.023438 C 32.632812 26.867188 32.957031 26.835938 33.203125 26.523438 C 33.65625 25.941406 33.964844 25.125 34.101562 23.988281 C 34.222656 22.984375 33.898438 22.292969 33.480469 21.765625 C 33.929688 20.300781 34.484375 17.96875 34.296875 15.558594 C 34.191406 14.230469 33.859375 12.898438 33.058594 11.789062 C 32.289062 10.726562 31.046875 9.964844 29.453125 9.691406 C 28.441406 8.539062 26.835938 8 24.914062 8 L 24.894531 8 C 20.59375 8.078125 17.816406 9.859375 16.628906 12.574219 C 15.5 15.160156 15.742188 18.375 16.550781 21.722656 C 16.117188 22.253906 15.773438 22.957031 15.898438 23.988281 C 16.035156 25.125 16.34375 25.941406 16.796875 26.519531 C 17.042969 26.835938 17.367188 26.867188 17.667969 27.023438 C 17.867188 28.023438 18.222656 29.011719 18.707031 29.816406 C 18.992188 30.289062 19.289062 30.707031 19.582031 31.050781 C 19.707031 31.199219 19.859375 31.285156 19.980469 31.40625 C 19.988281 32.496094 20.007812 33.417969 19.914062 34.566406 C 19.71875 35.039062 19.347656 35.449219 18.679688 35.851562 C 17.984375 36.269531 17.027344 36.648438 15.964844 37.03125 C 14.078125 37.707031 11.851562 38.382812 10.015625 39.71875 C 6.296875 35.929688 4 30.742188 4 25.007812 C 4 13.398438 13.390625 4.007812 25 4.007812 Z M 24.921875 10.003906 C 26.765625 10.003906 27.925781 10.550781 28.246094 11.105469 L 28.488281 11.535156 L 28.976562 11.601562 C 30.230469 11.777344 30.933594 12.261719 31.4375 12.957031 C 31.9375 13.65625 32.21875 14.625 32.304688 15.714844 C 32.472656 17.894531 31.847656 20.46875 31.453125 21.660156 L 31.203125 22.414062 L 31.882812 22.828125 C 31.8125 22.789062 32.203125 23.019531 32.117188 23.75 C 32.007812 24.640625 31.78125 25.09375 31.628906 25.285156 C 31.476562 25.480469 31.410156 25.457031 31.429688 25.453125 L 30.605469 25.523438 L 30.515625 26.34375 C 30.441406 27.050781 30.042969 28.015625 29.578125 28.785156 C 29.347656 29.171875 29.097656 29.515625 28.890625 29.761719 C 28.683594 30.007812 28.460938 30.160156 28.542969 30.113281 L 28.007812 30.394531 L 28.007812 31 C 28.007812 32.324219 27.957031 33.40625 28.09375 34.949219 L 28.105469 35.082031 L 28.152344 35.207031 C 28.546875 36.265625 29.371094 37.011719 30.292969 37.566406 C 31.214844 38.121094 32.277344 38.519531 33.367188 38.90625 C 35.171875 39.550781 37.046875 40.179688 38.476562 41.109375 C 34.832031 44.164062 30.136719 46.007812 25 46.007812 C 19.867188 46.007812 15.171875 44.167969 11.523438 41.113281 C 12.964844 40.1875 14.84375 39.554688 16.640625 38.910156 C 17.734375 38.519531 18.792969 38.121094 19.710938 37.5625 C 20.632812 37.007812 21.453125 36.261719 21.84375 35.207031 L 21.890625 35.082031 L 21.902344 34.949219 C 22.042969 33.410156 21.988281 32.324219 21.988281 31 L 21.988281 30.394531 L 21.453125 30.113281 C 21.539062 30.15625 21.316406 30.003906 21.109375 29.757812 C 20.902344 29.515625 20.652344 29.171875 20.421875 28.785156 C 19.957031 28.015625 19.558594 27.050781 19.484375 26.34375 L 19.394531 25.523438 L 18.570312 25.453125 C 18.585938 25.457031 18.523438 25.480469 18.371094 25.285156 C 18.21875 25.09375 17.992188 24.640625 17.882812 23.75 C 17.796875 23.019531 18.191406 22.785156 18.117188 22.828125 L 18.75 22.445312 L 18.566406 21.722656 C 17.707031 18.414062 17.574219 15.398438 18.460938 13.375 C 19.34375 11.355469 21.117188 10.074219 24.921875 10 Z M 24.921875 10.003906 "/>
</g>
</svg>
