<?xml version="1.0" encoding="UTF-8"?>
<svg xmlns="http://www.w3.org/2000/svg" xmlns:xlink="http://www.w3.org/1999/xlink" width="50pt" height="50pt" viewBox="0 0 50 50" version="1.1">
<g id="surface9006044">
<path style=" stroke:none;fill-rule:nonzero;fill:rgb(40%,40%,40%);fill-opacity:1;" d="M 5.984375 3 C 5.714844 3.003906 5.460938 3.117188 5.273438 3.308594 L 3.273438 5.414062 C 3.097656 5.601562 3 5.847656 3 6.105469 L 3 38 C 2.996094 39.996094 3.46875 41.832031 4.476562 43.265625 C 4.535156 43.355469 4.589844 43.445312 4.648438 43.53125 C 5.695312 44.992188 7.242188 46 9 46 C 9.144531 46 9.285156 45.980469 9.429688 45.96875 C 9.617188 45.984375 9.804688 46 9.996094 46 C 9.996094 46 10 46 10 46 L 43 46 C 43.050781 46 43.101562 45.996094 43.152344 45.988281 C 44.847656 45.933594 46.335938 44.949219 47.351562 43.53125 C 48.394531 42.066406 49 40.125 49 38 C 49 35.875 48.394531 33.933594 47.351562 32.472656 C 46.339844 31.058594 44.859375 30.078125 43.175781 30.011719 C 43.171875 30.011719 43.171875 30.011719 43.167969 30.011719 C 43.113281 30.003906 43.058594 30 43 30 L 39 30 L 39 4 C 39 3.59375 38.757812 3.230469 38.382812 3.078125 C 38.007812 2.921875 37.578125 3.007812 37.292969 3.292969 L 34.003906 6.585938 L 30.707031 3.292969 C 30.316406 2.902344 29.683594 2.902344 29.292969 3.292969 L 26 6.585938 L 22.707031 3.292969 C 22.316406 2.902344 21.683594 2.902344 21.292969 3.292969 L 18 6.585938 L 14.707031 3.292969 C 14.316406 2.902344 13.683594 2.902344 13.292969 3.292969 L 10 6.585938 L 6.707031 3.292969 C 6.515625 3.101562 6.253906 2.996094 5.984375 3 Z M 14 5.414062 L 17.292969 8.707031 C 17.683594 9.097656 18.316406 9.097656 18.707031 8.707031 L 22 5.414062 L 25.292969 8.707031 C 25.683594 9.097656 26.316406 9.097656 26.707031 8.707031 L 30 5.414062 L 33.300781 8.707031 C 33.691406 9.097656 34.324219 9.097656 34.714844 8.707031 L 37 6.417969 L 37 30 L 9 30 C 7.425781 30 6.027344 30.808594 5 32.027344 L 5 6.503906 L 6.015625 5.433594 L 9.292969 8.707031 C 9.683594 9.097656 10.316406 9.097656 10.707031 8.707031 Z M 9 12 L 9 14 L 23 14 L 23 12 Z M 26 12 L 26 14 L 33 14 L 33 12 Z M 9 16 L 9 18 L 16 18 L 16 16 Z M 19 16 L 19 18 L 33 18 L 33 16 Z M 9 20 L 9 22 L 14 22 L 14 20 Z M 17 20 L 17 22 L 24 22 L 24 20 Z M 27 20 L 27 22 L 33 22 L 33 20 Z M 9 24 L 9 26 L 20 26 L 20 24 Z M 23 24 L 23 26 L 33 26 L 33 24 Z M 9 32 C 10.003906 32 10.957031 32.558594 11.722656 33.628906 C 12.488281 34.703125 13 36.261719 13 38 C 13 39.738281 12.488281 41.296875 11.722656 42.371094 C 11.058594 43.296875 10.253906 43.839844 9.398438 43.96875 C 7.992188 43.835938 7.011719 43.257812 6.289062 42.359375 C 6.257812 42.320312 6.230469 42.277344 6.203125 42.238281 C 5.484375 41.175781 5 39.679688 5 38 C 5 36.261719 5.511719 34.703125 6.277344 33.628906 C 7.042969 32.558594 7.996094 32 9 32 Z M 12.980469 32 L 43 32 C 44 32 44.957031 32.5625 45.722656 33.632812 C 46.484375 34.703125 47 36.261719 47 38 C 47 39.738281 46.484375 41.296875 45.722656 42.367188 C 44.957031 43.4375 44 44 43 44 L 12.980469 44 C 13.109375 43.847656 13.234375 43.695312 13.347656 43.53125 C 14.394531 42.070312 15 40.125 15 38 C 15 35.875 14.394531 33.929688 13.347656 32.46875 C 13.234375 32.304688 13.109375 32.152344 12.980469 32 Z M 9 35 C 7.894531 35 7 36.34375 7 38 C 7 39.65625 7.894531 41 9 41 C 10.105469 41 11 39.65625 11 38 C 11 36.34375 10.105469 35 9 35 Z M 9 35 "/>
</g>
</svg>
