<?xml version="1.0" encoding="UTF-8"?>
<svg xmlns="http://www.w3.org/2000/svg" xmlns:xlink="http://www.w3.org/1999/xlink" width="50pt" height="50pt" viewBox="0 0 50 50" version="1.1">
<g id="surface9006246">
<path style=" stroke:none;fill-rule:nonzero;fill:rgb(23.921569%,30.588235%,69.019608%);fill-opacity:1;" d="M 5.984375 3 C 5.714844 3.003906 5.460938 3.117188 5.273438 3.308594 L 3.273438 5.414062 C 3.097656 5.601562 3 5.847656 3 6.105469 L 3 38 C 3 38.035156 3 38.066406 3.003906 38.097656 C 3.023438 40.1875 3.621094 42.09375 4.652344 43.53125 C 5.660156 44.945312 7.140625 45.925781 8.832031 45.988281 C 8.886719 45.996094 8.941406 46 9 46 L 43 46 C 43.050781 46 43.101562 45.996094 43.152344 45.988281 C 44.847656 45.933594 46.335938 44.949219 47.351562 43.53125 C 48.394531 42.066406 49 40.125 49 38 C 49 35.875 48.394531 33.933594 47.351562 32.472656 C 46.339844 31.054688 44.855469 30.074219 43.171875 30.011719 C 43.113281 30.003906 43.058594 30 43 30 L 39 30 L 39 4 C 39 3.59375 38.757812 3.230469 38.382812 3.078125 C 38.007812 2.921875 37.578125 3.007812 37.292969 3.292969 L 34.007812 6.585938 L 30.707031 3.292969 C 30.316406 2.902344 29.683594 2.902344 29.292969 3.292969 L 26 6.585938 L 22.707031 3.292969 C 22.316406 2.902344 21.683594 2.902344 21.292969 3.292969 L 18 6.585938 L 14.707031 3.292969 C 14.316406 2.902344 13.683594 2.902344 13.292969 3.292969 L 10 6.585938 L 6.707031 3.292969 C 6.515625 3.101562 6.253906 2.996094 5.984375 3 Z M 9 12 L 23 12 L 23 14 L 9 14 Z M 26 12 L 33 12 L 33 14 L 26 14 Z M 9 16 L 16 16 L 16 18 L 9 18 Z M 19 16 L 33 16 L 33 18 L 19 18 Z M 9 20 L 14 20 L 14 22 L 9 22 Z M 17 20 L 24 20 L 24 22 L 17 22 Z M 27 20 L 33 20 L 33 22 L 27 22 Z M 9 24 L 20 24 L 20 26 L 9 26 Z M 23 24 L 33 24 L 33 26 L 23 26 Z M 38 32 L 43 32 C 44 32 44.957031 32.5625 45.722656 33.632812 C 45.800781 33.742188 45.863281 33.878906 45.933594 34 L 14.199219 34 C 13.960938 33.449219 13.679688 32.933594 13.347656 32.46875 C 13.234375 32.308594 13.113281 32.15625 12.984375 32.007812 C 20.484375 32.03125 38 32 38 32 Z M 8.976562 32.003906 C 8.980469 32.003906 9.019531 32 9.023438 32.003906 C 10.015625 32.011719 10.964844 32.566406 11.722656 33.632812 C 12.488281 34.703125 13 36.261719 13 38 C 13 39.738281 12.488281 41.296875 11.722656 42.371094 C 10.957031 43.441406 10.003906 44 9 44 C 7.996094 44 7.042969 43.441406 6.277344 42.371094 C 5.511719 41.296875 5 39.738281 5 38 C 5 36.261719 5.511719 34.703125 6.277344 33.632812 C 7.035156 32.566406 7.984375 32.011719 8.976562 32.003906 Z M 9 35 C 7.894531 35 7 36.34375 7 38 C 7 39.65625 7.894531 41 9 41 C 10.105469 41 11 39.65625 11 38 C 11 36.34375 10.105469 35 9 35 Z M 9 35 "/>
</g>
</svg>
