<svg fill="#000000" xmlns="http://www.w3.org/2000/svg" viewBox="0 0 50 50" width="50px" height="50px"><path d="M41,4H9C6.24,4,4,6.24,4,9v32c0,2.76,2.24,5,5,5h32c2.76,0,5-2.24,5-5V9C46,6.24,43.76,4,41,4z M30.31,35.66c-2.35,1.6-4.51,2.86-5.31,3.19c-0.32,0.13-0.56,0.19-0.75,0.19c-0.66,0-0.6-0.7-0.55-0.99c0.04-0.22,0.22-1.26,0.22-1.26c0.05-0.37,0.1-0.96-0.05-1.33c-0.17-0.41-0.84-0.62-1.33-0.72C15.34,33.8,10,28.85,10,22.95C10,16.36,16.73,11,25,11s15,5.36,15,11.95c0,2.63-1.04,5.01-3.22,7.35C35.21,32.08,32.66,34.04,30.31,35.66z"/><path d="M18 27h-3c-.552 0-1-.448-1-1v-6c0-.552.448-1 1-1s1 .448 1 1v5h2c.552 0 1 .448 1 1S18.552 27 18 27zM22 26c0 .552-.448 1-1 1s-1-.448-1-1v-6c0-.552.448-1 1-1s1 .448 1 1V26zM29 26c0 .973-1.248 1.373-1.814.581L25 23.121V26c0 .552-.448 1-1 1s-1-.448-1-1v-6c0-.973 1.248-1.373 1.814-.581L27 23v-3c0-.552.448-1 1-1s1 .448 1 1V26zM34 22c.553 0 1 .448 1 1s-.447 1-1 1h-2v1h2c.552 0 1 .448 1 1s-.448 1-1 1h-3c-.552 0-1-.448-1-1v-6c0-.552.448-1 1-1h3c.552 0 1 .448 1 1s-.448 1-1 1h-2v1H34z"/></svg>