<svg fill="#000000" xmlns="http://www.w3.org/2000/svg" viewBox="0 0 50 50" width="50px" height="50px"><path d="M25,7c-1.654,0-3-1.346-3-3s1.346-3,3-3s3,1.346,3,3S26.654,7,25,7z"/><path d="M42.482 33.469C40.806 31.93 38 29.354 38 19c0-6.195-3.312-10.789-8.755-12.391C28.364 8.038 26.798 9 25 9c-1.797 0-3.363-.962-4.244-2.389C15.315 8.217 12 12.821 12 19c0 10.354-2.806 12.93-4.482 14.469C6.737 34.186 6 34.863 6 36c0 4.038 6.215 6 19 6s19-1.962 19-6C44 34.863 43.263 34.186 42.482 33.469zM25 44c-1.954 0-3.965-.038-5.933-.152C19.481 46.755 21.98 49 25 49s5.519-2.245 5.933-5.152C28.965 43.962 26.954 44 25 44z"/></svg>