<svg fill="#F49F3F" xmlns="http://www.w3.org/2000/svg" viewBox="0 0 50 50" width="50px" height="50px"><path d="M 22 4 C 12.626 4 5 11.626 5 21 C 5 30.374 12.626 38 22 38 C 25.711335 38 29.137005 36.789647 31.935547 34.763672 L 45.085938 47.914062 L 47.914062 45.085938 L 34.884766 32.056641 C 37.442373 29.080684 39 25.222646 39 21 C 39 11.626 31.374 4 22 4 z M 14 19 C 15.105 19 16 19.895 16 21 C 16 22.105 15.105 23 14 23 C 12.895 23 12 22.105 12 21 C 12 19.895 12.895 19 14 19 z M 22 19 C 23.105 19 24 19.895 24 21 C 24 22.105 23.105 23 22 23 C 20.895 23 20 22.105 20 21 C 20 19.895 20.895 19 22 19 z M 30 19 C 31.105 19 32 19.895 32 21 C 32 22.105 31.105 23 30 23 C 28.895 23 28 22.105 28 21 C 28 19.895 28.895 19 30 19 z"/></svg>