<?xml version="1.0"?><svg fill="#666666" xmlns="http://www.w3.org/2000/svg" viewBox="0 0 50 50" width="50px" height="50px">    <path d="M 19.890625 4 C 16.220625 4.07 13.540391 5.1898437 11.900391 7.3398438 C 9.9503906 9.9098438 9.5805469 13.820937 10.810547 18.960938 C 10.360547 19.520937 10.030156 20.38 10.160156 21.5 C 10.430156 23.72 11.28 24.620234 12 24.990234 C 12.35 26.740234 13.290938 28.710859 14.210938 29.630859 L 14.220703 30.109375 C 14.220703 31.129375 14.230625 32.029688 14.140625 33.179688 C 13.520625 34.599688 11.490625 35.409844 9.140625 36.339844 C 5.230625 37.889844 0.37 39.819453 0 45.939453 L -0.060546875 47 L 30.25 47 C 29.8 46.38 29.410078 45.71 29.080078 45 L 2.1308594 45 C 2.8808594 40.98 6.4291406 39.569219 9.8691406 38.199219 C 12.609141 37.109219 15.200547 36.09 16.060547 33.75 L 16.119141 33.5 C 16.229141 32.18 16.220703 31.169844 16.220703 30.089844 L 16.210938 29.160156 L 16.230469 28.570312 L 15.699219 28.279297 C 15.259219 27.979297 14.090625 25.939141 13.890625 24.119141 L 13.810547 23.289062 L 12.980469 23.230469 C 12.850469 23.220469 12.340391 22.849766 12.150391 21.259766 C 12.050391 20.439766 12.449219 20.150625 12.449219 20.140625 L 13.080078 19.759766 L 12.890625 19.039062 C 11.670625 14.299062 11.88 10.670781 13.5 8.5507812 C 14.74 6.9207813 16.900156 6.06 19.910156 6 C 21.780156 6 23.169141 6.4695312 23.619141 7.2695312 L 23.859375 7.6992188 L 24.349609 7.7695312 C 25.679609 7.9495312 26.620469 8.5197656 27.230469 9.5097656 C 28.790469 12.009766 27.900859 16.640469 27.130859 18.980469 L 26.919922 19.720703 L 27.550781 20.140625 C 27.550781 20.150625 27.949609 20.439766 27.849609 21.259766 C 27.659609 22.849766 27.149531 23.220469 27.019531 23.230469 L 26.189453 23.289062 L 26.109375 24.119141 C 25.909375 25.949141 24.780859 27.989531 24.380859 28.269531 L 23.839844 28.550781 L 23.839844 30.099609 C 23.829844 31.169609 23.819453 32.18 23.939453 33.5 L 23.990234 33.75 C 24.650234 35.53 26.309297 36.549922 28.279297 37.419922 C 28.419297 36.759922 28.619141 36.12 28.869141 35.5 C 27.449141 34.86 26.339922 34.169688 25.919922 33.179688 C 25.819922 32.029688 25.829844 31.139375 25.839844 30.109375 L 25.839844 29.619141 C 26.739844 28.699141 27.66 26.740234 28 24.990234 C 28.72 24.620234 29.579844 23.72 29.839844 21.5 C 29.969844 20.4 29.650938 19.55 29.210938 19 C 29.740938 17.16 30.809375 12.599063 29.359375 9.2890625 C 29.449375 9.2190625 29.520078 9.1197656 29.580078 9.0097656 C 29.900078 8.3797656 31.069219 8.03 32.949219 8 C 34.459219 8 35.609219 8.3709375 35.949219 8.9609375 L 36.189453 9.3808594 L 36.679688 9.4492188 C 37.839688 9.5992188 38.670703 10.11 39.220703 11 C 40.470703 13.02 39.980859 16.600859 39.380859 18.380859 L 39.220703 19.119141 L 39.810547 19.550781 C 39.810547 19.550781 40.060234 19.739297 39.990234 20.279297 C 39.850234 21.399297 39.499688 21.720234 39.429688 21.740234 L 38.609375 21.810547 L 38.519531 22.630859 C 38.359531 24.090859 37.440391 25.670625 37.150391 25.890625 L 36.609375 26.169922 L 36.599609 27.550781 C 36.599609 27.860781 36.599375 28.170234 36.609375 28.490234 C 37.249375 28.300234 37.919609 28.160078 38.599609 28.080078 L 38.599609 27.570312 L 38.609375 27.25 C 39.399375 26.43 40.120391 24.830469 40.400391 23.480469 C 41.020391 23.140469 41.750703 22.349297 41.970703 20.529297 C 42.080703 19.609297 41.830937 18.900156 41.460938 18.410156 C 42.040938 16.300156 42.499922 12.499453 40.919922 9.9394531 C 40.119922 8.6594531 38.940625 7.8490625 37.390625 7.5390625 C 36.550625 6.5390625 34.999453 6 32.939453 6 C 31.389453 6.03 29.319219 6.2197656 28.199219 7.5097656 C 27.399219 6.6697656 26.360078 6.119375 25.080078 5.859375 C 24.130078 4.659375 22.320625 4 19.890625 4 z M 40 30 C 34.5 30 30 34.5 30 40 C 30 45.5 34.5 50 40 50 C 45.5 50 50 45.5 50 40 C 50 34.5 45.5 30 40 30 z M 40 32 C 44.4 32 48 35.6 48 40 C 48 44.4 44.4 48 40 48 C 35.6 48 32 44.4 32 40 C 32 35.6 35.6 32 40 32 z M 39 34 L 39 39.5 L 35.400391 42.199219 L 36.599609 43.800781 L 41 40.5 L 41 34 L 39 34 z"/></svg>