<?xml version="1.0"?><svg fill="#F49F3F" xmlns="http://www.w3.org/2000/svg" viewBox="0 0 50 50" width="50px" height="50px">    <path d="M 19.890625 4 C 16.210625 4.07 13.510859 5.1991406 11.880859 7.3691406 C 9.9508594 9.9491406 9.5905469 13.840937 10.810547 18.960938 C 10.360547 19.520938 10.030156 20.38 10.160156 21.5 C 10.430156 23.72 11.28 24.63 12 25 C 12.35 26.74 13.290938 28.710625 14.210938 29.640625 L 14.210938 30.109375 C 14.220938 31.129375 14.230859 32.019922 14.130859 33.169922 C 13.520859 34.579922 11.490625 35.390078 9.140625 36.330078 C 5.230625 37.880078 0.36 39.809688 0 45.929688 L -0.060546875 47 L 30.25 47 C 28.83 45.03 28 42.62 28 40 C 28 38.4 28.310859 36.880469 28.880859 35.480469 C 27.450859 34.850469 26.339922 34.159922 25.919922 33.169922 C 25.819922 32.019922 25.829844 31.129375 25.839844 30.109375 L 25.839844 29.630859 C 26.739844 28.700859 27.66 26.740469 28 24.980469 C 28.7 24.620469 29.579844 23.71 29.839844 21.5 C 29.969844 20.4 29.650938 19.55 29.210938 19 C 29.800938 17 30.989453 11.810469 28.939453 8.4804688 C 28.499453 7.7504688 27.920469 7.1707031 27.230469 6.7207031 C 26.920469 6.5207031 26.580703 6.3492188 26.220703 6.1992188 C 25.860703 6.0592187 25.480313 5.939375 25.070312 5.859375 C 24.130312 4.659375 22.320625 4 19.890625 4 z M 32.900391 6 C 31.780391 6.02 30.790391 6.1696875 29.900391 6.4296875 C 30.190391 6.7396875 30.430391 7.0696875 30.650391 7.4296875 C 32.800391 10.929688 32.129141 15.699219 31.369141 18.699219 C 31.789141 19.609219 31.950312 20.650234 31.820312 21.740234 C 31.550313 24.080234 30.669531 25.419687 29.769531 26.179688 C 29.359531 27.709687 28.640078 29.259609 27.830078 30.349609 C 27.830078 31.129609 27.830859 31.790547 27.880859 32.560547 C 28.190859 32.920547 28.939297 33.319219 29.779297 33.699219 C 31.559297 30.819219 34.53 28.749922 38 28.169922 L 38 27.519531 C 38.8 26.699531 40.110625 24.959375 40.390625 23.609375 C 41.000625 23.269375 41.740938 22.479922 41.960938 20.669922 C 42.070938 19.759922 41.809219 19.050547 41.449219 18.560547 C 41.949219 16.850547 42.579844 12.150156 40.839844 9.4101562 C 40.109844 8.2401563 38.809375 7.8390625 37.359375 7.5390625 C 36.519375 6.5390625 34.970391 6 32.900391 6 z M 40 30 C 34.5 30 30 34.5 30 40 C 30 45.5 34.5 50 40 50 C 45.5 50 50 45.5 50 40 C 50 34.5 45.5 30 40 30 z M 40 32 C 44.4 32 48 35.6 48 40 C 48 44.4 44.4 48 40 48 C 35.6 48 32 44.4 32 40 C 32 35.6 35.6 32 40 32 z M 39 34 L 39 39.5 L 35.400391 42.199219 L 36.599609 43.800781 L 41 40.5 L 41 34 L 39 34 z"/></svg>