<?xml version="1.0" encoding="UTF-8"?>
<svg xmlns="http://www.w3.org/2000/svg" xmlns:xlink="http://www.w3.org/1999/xlink" width="50pt" height="50pt" viewBox="0 0 50 50" version="1.1">
<g id="surface9371526">
<path style=" stroke:none;fill-rule:nonzero;fill:rgb(40%,40%,40%);fill-opacity:1;" d="M 21 2 L 21 5 L 23 5 L 23 6.097656 C 12.351562 7.109375 4 16.089844 4 27 C 4 38.585938 13.414062 48 25 48 C 36.585938 48 46 38.585938 46 27 C 46 16.089844 37.648438 7.109375 27 6.097656 L 27 5 L 29 5 L 29 2 Z M 40.238281 5.148438 L 38.230469 7.152344 L 42.847656 11.769531 L 44.851562 9.761719 Z M 25 8 C 35.503906 8 44 16.496094 44 27 C 44 37.503906 35.503906 46 25 46 C 14.496094 46 6 37.503906 6 27 C 6 16.496094 14.496094 8 25 8 Z M 14.988281 15.988281 C 14.582031 15.992188 14.21875 16.238281 14.0625 16.613281 C 13.910156 16.992188 14 17.421875 14.292969 17.707031 L 23.070312 26.484375 C 23.023438 26.652344 23 26.824219 23 27 C 23 28.105469 23.894531 29 25 29 C 25.175781 29 25.347656 28.976562 25.519531 28.929688 L 27.292969 30.707031 C 27.542969 30.96875 27.917969 31.074219 28.265625 30.980469 C 28.617188 30.890625 28.890625 30.617188 28.980469 30.265625 C 29.074219 29.917969 28.96875 29.542969 28.707031 29.292969 L 26.929688 27.515625 C 26.976562 27.347656 27 27.175781 27 27 C 27 25.894531 26.105469 25 25 25 C 24.824219 25 24.652344 25.023438 24.480469 25.066406 L 15.707031 16.292969 C 15.519531 16.097656 15.261719 15.992188 14.988281 15.988281 Z M 14.988281 15.988281 "/>
</g>
</svg>
